<svg width="271" height="403" viewBox="0 0 271 403" fill="none" xmlns="http://www.w3.org/2000/svg">
<g style="mix-blend-mode:multiply" opacity="0.25">
<path d="M135.468 402.254C209.813 402.254 270.082 389.655 270.082 374.113C270.082 358.571 209.813 345.972 135.468 345.972C61.1227 345.972 0.853882 358.571 0.853882 374.113C0.853882 389.655 61.1227 402.254 135.468 402.254Z" fill="#9A9C9B"/>
</g>
<path d="M82.5334 354.718C82.5334 354.718 72.5313 358.515 67.9963 362.936C61.5669 369.204 64.846 378.151 80.1136 379.499C98.6369 381.135 108.107 369.185 108.453 364.807C108.881 359.404 108.694 356.788 106.161 354.591C84.2508 352.222 82.5334 354.718 82.5334 354.718Z" fill="#39294E"/>
<path d="M82.5334 354.718C82.5334 354.718 72.5313 358.515 67.9963 362.936C61.5669 369.204 64.846 378.151 80.1136 379.499C98.6369 381.135 108.107 369.185 108.453 364.807C108.881 359.404 108.694 356.788 106.161 354.591C84.2508 352.222 82.5334 354.718 82.5334 354.718Z" stroke="#39294E" stroke-width="2.80384" stroke-linecap="round" stroke-linejoin="round"/>
<path d="M86.0215 325.74C86.0215 325.74 88.4042 347.829 86.3594 352.979C86.015 353.846 80.0231 354.989 79.3414 358.254C78.7399 361.134 80.9397 364.321 85.7962 365.736C93.471 367.972 102.109 365.872 105.165 360.048C107.964 354.712 102.245 342.473 110.153 325.333C88.067 325.333 86.0215 325.74 86.0215 325.74Z" fill="#FFAB91"/>
<path d="M84.3634 360.336C85.045 357.071 91.037 355.928 91.3813 355.061C93.4262 349.912 91.0435 327.823 91.0435 327.823C91.0435 327.823 92.714 327.491 109.25 327.426C109.532 326.735 109.827 326.04 110.153 325.33C88.0677 325.33 86.0228 325.737 86.0228 325.737C86.0228 325.737 88.4049 347.826 86.3601 352.976C86.0157 353.843 80.0237 354.986 79.3421 358.251C78.7412 361.131 80.9404 364.318 85.7969 365.733C86.2253 365.858 86.6576 365.966 87.0912 366.062C84.8732 364.467 83.9468 362.328 84.3634 360.336Z" fill="#E88B74"/>
<path d="M86.0215 325.74C86.0215 325.74 88.4042 347.829 86.3594 352.979C86.015 353.846 80.0231 354.989 79.3414 358.254C78.7399 361.134 80.9397 364.321 85.7962 365.736C93.471 367.972 102.109 365.872 105.165 360.048C107.964 354.712 102.245 342.473 110.153 325.333C88.067 325.333 86.0215 325.74 86.0215 325.74Z" stroke="#39294E" stroke-width="2.80384" stroke-linecap="round" stroke-linejoin="round"/>
<path d="M80.3676 321.912C80.3676 321.912 81.6969 328.785 81.6969 330.696C81.6969 332.608 93.6561 334.271 99.2365 334.271C104.817 334.271 108.538 336.172 110.664 334.271C112.791 332.37 114.214 321.198 114.214 320.01C114.214 318.822 80.3676 321.912 80.3676 321.912Z" fill="#C65258"/>
<g style="mix-blend-mode:multiply" opacity="0.21">
<path d="M91.1848 325.181C91.1848 325.181 103.973 324.016 113.829 323.39C114.078 321.692 114.214 320.376 114.214 320.013C114.214 318.825 80.3676 321.915 80.3676 321.915C80.3676 321.915 81.6969 328.788 81.6969 330.699C81.6969 331.997 87.2175 333.181 92.5083 333.807C92.4465 331.71 91.1848 325.181 91.1848 325.181Z" fill="#C65258"/>
</g>
<path d="M80.3676 321.912C80.3676 321.912 81.6969 328.785 81.6969 330.696C81.6969 332.608 93.6561 334.271 99.2365 334.271C104.817 334.271 108.538 336.172 110.664 334.271C112.791 332.37 114.214 321.198 114.214 320.01C114.214 318.822 80.3676 321.912 80.3676 321.912Z" stroke="#39294E" stroke-width="2.80384" stroke-linecap="round" stroke-linejoin="round"/>
<path opacity="0.6" d="M88.0865 374.363C88.3397 374.308 88.5858 374.23 88.8209 374.13" stroke="white" stroke-width="2.80384" stroke-linecap="round" stroke-linejoin="round"/>
<path opacity="0.6" d="M76.9777 373.494C76.9777 373.494 79.3753 375.678 85.2885 374.878" stroke="white" stroke-width="2.80384" stroke-linecap="round" stroke-linejoin="round"/>
<path d="M194.289 362.364C200.718 368.632 202.171 377.614 186.903 378.963C168.38 380.599 157.477 370.444 157.128 366.065C156.699 360.662 157.031 356.617 159.566 354.42C181.476 352.051 189.753 357.943 194.289 362.364Z" fill="#39294E"/>
<path d="M194.289 362.364C200.718 368.632 202.171 377.614 186.903 378.963C168.38 380.599 157.477 370.444 157.128 366.065C156.699 360.662 157.031 356.617 159.566 354.42C181.476 352.051 189.753 357.943 194.289 362.364Z" stroke="#39294E" stroke-width="2.80384" stroke-linecap="round" stroke-linejoin="round"/>
<path d="M178.064 325.74C178.064 325.74 175.682 347.829 177.727 352.979C178.071 353.846 186.425 359.757 179.848 364.317C177.26 366.112 163.772 365.872 160.716 360.048C157.917 354.712 161.841 342.473 153.933 325.333C176.019 325.333 178.064 325.74 178.064 325.74Z" fill="#FFAB91"/>
<path d="M165.767 360.429C162.968 355.093 166.892 342.855 158.985 325.714C168.722 325.714 174.561 325.793 178.05 325.882C178.058 325.799 178.064 325.74 178.064 325.74C178.064 325.74 176.019 325.333 153.933 325.333C161.841 342.474 157.918 354.712 160.716 360.048C162.794 364.007 169.689 365.384 174.707 365.298C170.9 364.652 167.195 363.15 165.767 360.429Z" fill="#E88B74"/>
<path d="M178.064 325.74C178.064 325.74 175.682 347.829 177.727 352.979C178.071 353.846 187.565 361.531 179.848 364.317C175.007 366.064 163.772 365.872 160.716 360.048C157.917 354.712 161.841 342.473 153.933 325.333C176.019 325.333 178.064 325.74 178.064 325.74Z" stroke="#39294E" stroke-width="2.80384" stroke-linecap="round" stroke-linejoin="round"/>
<path d="M183.719 323.544C183.719 323.544 182.39 330.414 182.39 332.329C182.39 334.243 172.234 335.851 166.795 336.969C162.684 337.814 155.548 337.804 153.422 335.904C151.295 334.003 149.872 322.831 149.872 321.643C149.872 320.454 183.719 323.544 183.719 323.544Z" fill="#C65258"/>
<g style="mix-blend-mode:multiply" opacity="0.21">
<path d="M160.52 335.903C158.394 334.002 156.971 322.831 156.971 321.643C156.971 321.598 157.036 321.561 157.128 321.526C152.896 321.315 149.872 321.287 149.872 321.643C149.872 322.831 151.295 334.002 153.422 335.903C155.209 337.501 160.529 337.76 164.623 337.3C162.831 337.066 161.32 336.619 160.52 335.903Z" fill="#C65258"/>
</g>
<path d="M183.719 323.544C183.719 323.544 182.39 330.414 182.39 332.329C182.39 334.243 172.234 335.851 166.795 336.969C162.684 337.814 155.548 337.804 153.422 335.904C151.295 334.003 149.872 322.831 149.872 321.643C149.872 320.454 183.719 323.544 183.719 323.544Z" stroke="#39294E" stroke-width="2.80384" stroke-linecap="round" stroke-linejoin="round"/>
<path opacity="0.6" d="M180.966 374.998C182.994 375.1 186.065 375.273 188.281 373.959" stroke="white" stroke-width="2.80384" stroke-linecap="round" stroke-linejoin="round"/>
<path opacity="0.6" d="M176.923 374.363C176.923 374.363 177.025 374.363 177.93 374.529" stroke="white" stroke-width="2.80384" stroke-linecap="round" stroke-linejoin="round"/>
<path d="M149.209 155.859H126.635C126.635 155.859 128.471 146.616 128.685 143.7C129.023 139.114 128.328 126.679 128.328 126.679H147.515C147.515 126.679 146.82 139.114 147.158 143.7C147.373 146.616 149.209 155.859 149.209 155.859Z" fill="#FFAB91"/>
<path d="M128.328 126.679C128.328 126.679 128.479 129.374 128.606 132.717C131.56 133.893 134.774 134.453 138.006 134.354C141.238 134.255 144.402 133.501 147.26 132.147V132.147C147.381 129.073 147.515 126.679 147.515 126.679H128.328Z" fill="#E88B74"/>
<path d="M149.209 155.859H126.635C126.635 155.859 128.471 146.616 128.685 143.7C129.023 139.114 128.328 126.679 128.328 126.679H147.515C147.515 126.679 146.82 139.114 147.158 143.7C147.373 146.616 149.209 155.859 149.209 155.859Z" stroke="#39294E" stroke-width="2.80384" stroke-linejoin="round"/>
<path d="M147.473 143.011C146.389 146.89 143.17 150.589 137.628 150.589C132.087 150.589 128.867 146.89 127.786 143.011L112.902 143.826L115.723 230.134H159.175L161.996 143.826L147.473 143.011Z" fill="white"/>
<path d="M127.786 146.646C128.794 147.898 132.09 150.589 137.631 150.589C143.173 150.589 146.208 149.185 147.477 146.646L161.878 147.456L161.996 143.827L147.479 143.012C146.395 146.892 143.175 150.59 137.633 150.59C132.092 150.59 128.867 146.89 127.786 143.011L112.902 143.826L113.02 147.455L127.786 146.646Z" fill="#EFEFEF"/>
<path d="M147.473 143.011C146.389 146.89 143.17 150.589 137.628 150.589C132.087 150.589 128.867 146.89 127.786 143.011L112.902 143.826L115.723 230.134H159.175L161.996 143.826L147.473 143.011Z" stroke="#39294E" stroke-width="2.80384" stroke-linejoin="round"/>
<path d="M172.516 230.136C172.516 230.136 174.304 246.192 191.644 279.656C203.501 302.538 191.97 325.392 174.086 329.381C159.172 332.708 145.311 330.346 141.014 315.015C137.225 301.479 143.731 282.782 141.395 273.434C137.066 274.312 135.164 274.287 131.995 273.434C123.805 289.856 130.052 308.034 121.827 317.88C114.054 327.185 93.839 331.392 78.7205 322.558C63.1157 313.44 65.8506 295.706 80.0303 275.845C92.0702 258.981 101.654 238.812 103.456 227.517C108.107 227.517 172.516 230.136 172.516 230.136Z" fill="#5F2E50"/>
<g style="mix-blend-mode:overlay" opacity="0.22">
<g style="mix-blend-mode:overlay" opacity="0.22">
<path d="M90.0376 320.122C74.4322 311.004 77.1671 293.269 91.3474 273.408C102.458 257.845 111.473 239.474 114.214 227.853C108.557 227.648 104.5 227.517 103.457 227.517C101.656 238.812 92.0714 258.981 80.0315 275.845C65.8518 295.706 63.1169 313.44 78.7217 322.558C89.093 328.618 101.862 328.54 111.369 324.887C103.866 325.435 96.3706 323.761 90.0376 320.122V320.122Z" fill="#5F2E50"/>
</g>
<g style="mix-blend-mode:overlay" opacity="0.22">
<path d="M152.329 312.578C147.13 299.846 151.099 275.161 145.462 271.61C141.134 272.488 142.138 273.549 141.664 274.837C143.129 284.556 137.404 302.123 141.013 315.015C145.306 330.346 159.17 332.708 174.084 329.381C175.486 329.063 176.853 328.63 178.167 328.088C166.188 329.14 157.397 324.983 152.329 312.578Z" fill="#5F2E50"/>
</g>
</g>
<path d="M160.294 195.806C160.294 195.806 161.488 233.513 146.764 254.261C134.453 271.611 109.555 274.795 102.49 274.979C96.7198 275.049 91.0136 273.895 85.8394 271.61L91.1848 248.685L160.294 195.806Z" fill="#5A2849"/>
<path d="M172.516 230.136C172.516 230.136 174.304 246.192 191.644 279.656C203.501 302.538 191.97 325.392 174.086 329.381C159.172 332.708 145.311 330.346 141.014 315.015C137.225 301.479 143.731 282.782 141.395 273.434C138.293 273.991 135.097 273.991 131.995 273.434C123.805 289.856 130.052 308.034 121.827 317.88C114.054 327.185 93.839 331.392 78.7205 322.558C63.1157 313.44 65.8506 295.706 80.0303 275.845C92.0702 258.981 101.654 238.812 103.456 227.517C108.107 227.517 172.516 230.136 172.516 230.136Z" stroke="#39294E" stroke-width="2.80384" stroke-linecap="round" stroke-linejoin="round"/>
<path d="M137.922 91.9212C163.238 91.9212 188.369 88.0559 191.8 72.3319C194.234 61.1765 190.025 43.6785 185.29 36.2261L181.922 30.8697L137.924 30.4359L93.9229 32.8812C93.9229 32.8812 74.5383 50.2861 84.7163 70.0851C92.1951 84.6435 112.606 91.9212 137.922 91.9212Z" fill="#39294E" stroke="#39294E" stroke-width="2.80384" stroke-linejoin="round"/>
<path d="M91.7316 87.2961C85.5756 92.8016 75.7739 84.7064 76.9536 73.8195C77.5681 68.1364 85.1173 63.449 92.3429 70.6313C92.3403 70.6313 95.8212 83.641 91.7316 87.2961Z" fill="#FFAB91"/>
<path d="M92.0382 75.4124C92.7571 78.2504 93.208 81.1373 93.3864 84.0427C94.5309 78.8342 92.3402 70.6313 92.3402 70.6313C85.114 63.449 77.5655 68.1364 76.9509 73.8195C76.8296 74.9525 76.8263 76.0931 76.9412 77.2266C78.5042 72.2283 85.405 68.82 92.0382 75.4124Z" fill="#E88B74"/>
<path d="M91.7316 87.2961C85.5756 92.8016 75.7739 84.7064 76.9536 73.8195C77.5681 68.1364 85.1173 63.449 92.3429 70.6313C92.3403 70.6313 95.8212 83.641 91.7316 87.2961Z" stroke="#39294E" stroke-width="2.80384" stroke-linejoin="round"/>
<path d="M87.5619 79.0495C87.341 78.4506 87.0524 77.8733 86.7006 77.3267C86.3615 76.7753 85.934 76.2712 85.4317 75.8304C84.9509 75.4066 84.3636 75.0917 83.7189 74.9123C83.0478 74.7749 82.3486 74.7936 81.6878 74.9664L81.6455 74.9752C81.5489 74.9958 81.4471 74.9827 81.3609 74.9386C81.2747 74.8945 81.2105 74.8226 81.1814 74.7377C81.1523 74.6528 81.1604 74.5612 81.2042 74.4814C81.2479 74.4017 81.324 74.3399 81.417 74.3085C82.2089 74.0116 83.0736 73.9045 83.926 73.9976C84.7824 74.1371 85.5882 74.4603 86.2742 74.9396C86.9373 75.4003 87.5216 75.9452 88.0085 76.557C88.5052 77.159 88.93 77.8059 89.276 78.4871C89.3691 78.684 89.3723 78.9057 89.285 79.1047C89.1978 79.3037 89.0269 79.4643 88.809 79.5521C88.591 79.64 88.3433 79.6481 88.1188 79.5747C87.8943 79.5014 87.7107 79.3523 87.6074 79.1596C87.5931 79.1304 87.5807 79.1013 87.5697 79.0716L87.5619 79.0495Z" fill="#39294E"/>
<path d="M184.112 87.2961C190.268 92.8016 200.07 84.7064 198.89 73.8195C198.275 68.1364 190.726 63.449 183.501 70.6313C183.503 70.6313 180.025 83.641 184.112 87.2961Z" fill="#FFAB91"/>
<path d="M183.503 74.071C190.729 66.8887 198.281 71.5756 198.892 77.2593C198.892 77.2703 198.892 77.2819 198.892 77.293C199.015 76.1378 199.015 74.9747 198.892 73.8195C198.278 68.1364 190.729 63.449 183.503 70.6313C183.503 70.6313 181.787 77.0607 182.186 82.1499C182.391 79.4305 182.831 76.7295 183.503 74.071V74.071Z" fill="#E88B74"/>
<path d="M184.112 87.2961C190.268 92.8016 200.07 84.7064 198.89 73.8195C198.275 68.1364 190.726 63.449 183.501 70.6313C183.503 70.6313 180.025 83.641 184.112 87.2961Z" stroke="#39294E" stroke-width="2.80384" stroke-linejoin="round"/>
<path d="M186.561 78.5087C186.875 77.8739 187.27 77.2732 187.737 76.7184C188.193 76.1643 188.728 75.6664 189.33 75.2372C189.949 74.8102 190.657 74.4974 191.413 74.3167C192.161 74.1601 192.939 74.1508 193.691 74.2893C193.769 74.3013 193.84 74.3391 193.888 74.3953C193.936 74.4514 193.959 74.5217 193.952 74.5922C193.945 74.6627 193.908 74.7283 193.85 74.7758C193.791 74.8234 193.715 74.8495 193.635 74.8489H193.599C192.952 74.8132 192.303 74.9023 191.697 75.1103C191.116 75.3342 190.588 75.6578 190.145 76.0628C189.705 76.4829 189.327 76.9527 189.022 77.4601C188.716 77.9587 188.471 78.4858 188.293 79.0321L188.288 79.0478C188.257 79.1516 188.203 79.2489 188.129 79.334C188.056 79.4191 187.964 79.4905 187.86 79.544C187.755 79.5975 187.64 79.6321 187.521 79.6458C187.402 79.6595 187.281 79.6521 187.165 79.624C187.049 79.5958 186.94 79.5475 186.845 79.4818C186.75 79.4161 186.67 79.3343 186.61 79.241C186.55 79.1477 186.511 79.0447 186.496 78.9381C186.481 78.8314 186.489 78.7231 186.521 78.6193C186.531 78.5817 186.545 78.5448 186.561 78.5087V78.5087Z" fill="#39294E"/>
<path d="M185.295 66.7543C182.766 57.996 179.175 49.5113 174.584 41.4516L137.922 41.0504L101.26 41.4516C96.6691 49.5116 93.0771 57.9962 90.548 66.7543C86.1628 81.7866 88.0696 105.072 103.922 118.585C114.248 127.385 131.493 129.679 137.921 129.679C144.349 129.679 161.595 127.385 171.92 118.585C187.774 105.072 189.68 81.7866 185.295 66.7543Z" fill="#FFAB91"/>
<path d="M171.921 115.585C161.596 124.386 144.35 126.679 137.922 126.679C131.494 126.679 114.248 124.386 103.923 115.585C93.1853 106.433 88.8521 92.7987 88.5318 80.2804C88.1946 93.5731 92.3207 108.693 103.923 118.585C114.248 127.386 131.494 129.679 137.922 129.679C144.35 129.679 161.596 127.386 171.921 118.585C183.523 108.695 187.649 93.5731 187.311 80.2804C186.992 92.7987 182.658 106.433 171.921 115.585Z" fill="#E88B74"/>
<path d="M90.9972 65.258L101.26 41.4516L100.283 39.8214L110.931 41.7258C110.931 41.7258 127.662 38.0526 128.272 38.0526H145.574C147.15 38.0526 170.559 39.8214 171.015 40.2295C171.472 40.6376 180.665 53.3935 180.665 53.3935C180.665 53.3935 183.688 59.3647 184.53 64.2461C153.46 70.9696 128 49.0874 128 49.0874C128 49.0874 112.51 48.497 103.439 46.4994C100.653 50.4708 90.9966 65.2603 90.9966 65.2603" fill="#E88B74"/>
<path d="M185.295 66.7543C182.766 57.996 179.175 49.5113 174.584 41.4516L137.922 41.0504L101.26 41.4516C96.6691 49.5116 93.0771 57.9962 90.548 66.7543C86.1628 81.7866 88.0696 105.072 103.922 118.585C114.248 127.385 131.493 129.679 137.921 129.679C144.349 129.679 161.595 127.385 171.92 118.585C187.774 105.072 189.68 81.7866 185.295 66.7543Z" stroke="#39294E" stroke-width="2.80384" stroke-linejoin="round"/>
<path d="M143.826 84.6028C143.521 84.3292 143.146 84.125 142.735 84.0072C142.298 83.8609 141.849 83.7466 141.392 83.6654C139.538 83.3359 137.629 83.3359 135.775 83.6654C135.318 83.7466 134.869 83.8609 134.432 84.0072C134.02 84.1247 133.646 84.3285 133.339 84.6016L133.305 84.6383C133.268 84.6769 133.217 84.7029 133.161 84.7119C133.106 84.721 133.048 84.7125 132.998 84.6879C132.949 84.6633 132.91 84.6241 132.889 84.577C132.868 84.5298 132.866 84.4777 132.883 84.4293C133.1 83.9431 133.494 83.5367 134.002 83.2759C134.456 83.0147 134.944 82.8053 135.456 82.6523C137.485 82.041 139.682 82.041 141.711 82.6523C142.222 82.8054 142.711 83.0147 143.165 83.2753C143.673 83.5359 144.068 83.9424 144.285 84.4287C144.302 84.4774 144.3 84.53 144.279 84.5776C144.258 84.6252 144.219 84.6648 144.169 84.6895C144.119 84.7143 144.061 84.7227 144.005 84.7134C143.949 84.704 143.898 84.6775 143.861 84.6383L143.826 84.6028Z" fill="#39294E"/>
<path d="M118.648 91.6301C119.907 92.6965 121.335 93.5917 122.885 94.2874C124.431 95.0047 126.057 95.5779 127.735 95.9979C134.515 97.6674 141.675 97.6622 148.452 95.9828C150.128 95.5614 151.75 94.9866 153.294 94.2676C154.84 93.5714 156.264 92.6764 157.52 91.6109L157.528 91.6033C157.624 91.5227 157.75 91.4776 157.881 91.4774C158.012 91.4772 158.138 91.5219 158.234 91.6023C158.329 91.6828 158.387 91.7928 158.394 91.9099C158.402 92.027 158.359 92.1423 158.275 92.2321C157.044 93.481 155.596 94.5443 153.987 95.3814C152.388 96.207 150.697 96.8808 148.941 97.3918C141.882 99.3788 134.311 99.3735 127.256 97.3766C125.502 96.864 123.813 96.1886 122.217 95.3616C120.612 94.5238 119.168 93.4605 117.941 92.2123C117.863 92.1283 117.823 92.0208 117.831 91.9117C117.838 91.8027 117.891 91.7002 117.98 91.625C118.069 91.5499 118.186 91.5078 118.308 91.5072C118.431 91.5067 118.548 91.5477 118.638 91.622L118.648 91.6301Z" fill="#39294E"/>
<path d="M120.121 69.3392C122.641 69.3392 124.685 67.512 124.685 65.2579C124.685 63.0038 122.641 61.1765 120.121 61.1765C117.601 61.1765 115.557 63.0038 115.557 65.2579C115.557 67.512 117.601 69.3392 120.121 69.3392Z" fill="#39294E"/>
<path d="M109.245 60.9407C109.781 59.7287 110.608 58.6366 111.667 57.7414C112.731 56.8317 113.967 56.0992 115.319 55.5785C116.65 55.0638 118.056 54.7213 119.495 54.5613C120.928 54.3841 122.384 54.419 123.804 54.6644C124.025 54.7047 124.222 54.8132 124.362 54.9709C124.502 55.1285 124.575 55.3252 124.568 55.5263C124.562 55.7274 124.476 55.92 124.327 56.0702C124.177 56.2205 123.973 56.3187 123.75 56.3476L123.661 56.3587C122.448 56.5141 121.151 56.6946 119.933 56.9252C118.717 57.1568 117.521 57.4638 116.352 57.8439C115.198 58.2199 114.093 58.7061 113.055 59.2942C111.992 59.9176 110.996 60.6291 110.082 61.4193L110.041 61.4513C109.956 61.519 109.848 61.5588 109.734 61.5642C109.62 61.5695 109.507 61.5401 109.415 61.4808C109.322 61.4214 109.254 61.3357 109.223 61.2376C109.192 61.1395 109.199 61.0348 109.243 60.9407H109.245Z" fill="#39294E"/>
<path d="M157.769 69.3392C160.289 69.3392 162.332 67.512 162.332 65.2579C162.332 63.0038 160.289 61.1765 157.769 61.1765C155.248 61.1765 153.205 63.0038 153.205 65.2579C153.205 67.512 155.248 69.3392 157.769 69.3392Z" fill="#39294E"/>
<path d="M167.694 59.9528L155.601 56.0752" stroke="#39294E" stroke-width="4.20576" stroke-linecap="round" stroke-linejoin="round"/>
<path d="M133.473 38.0502C133.473 38.0502 122.637 42.4524 137.004 49.4774C147.193 54.4601 175.654 67.2491 187.336 62.3515C199.019 57.4538 191.8 48.1174 189.67 46.2129C186.933 48.6612 139.599 43.5295 133.473 38.0502Z" fill="#C65258"/>
<g style="mix-blend-mode:multiply" opacity="0.22">
<path d="M185.202 57.6652C190.113 55.6065 192.122 52.8677 192.583 50.1115C191.85 48.6811 190.867 47.3644 189.67 46.2106C186.933 48.6589 139.599 43.5272 133.473 38.0479C133.473 38.0479 130.894 43.0463 133.111 46.9466C160.482 59.9528 172.719 62.9 185.202 57.6652Z" fill="#C65258"/>
</g>
<path d="M133.473 38.0502C133.473 38.0502 122.637 42.4524 137.004 49.4774C147.193 54.4601 175.654 67.2491 187.336 62.3515C199.019 57.4538 191.8 48.1174 189.67 46.2129C186.933 48.6612 139.599 43.5295 133.473 38.0502Z" stroke="#39294E" stroke-width="2.80384" stroke-linejoin="round"/>
<path d="M189.384 51.9263C180.602 56.0752 164.482 50.43 145.65 47.573C126.819 44.7161 89.1542 44.308 81.7144 33.6976C74.2746 23.0872 84.6551 -0.288944 112.869 2.27282C139.838 4.72106 163.208 13.8357 189.384 27.9837C200.991 34.26 197.415 48.132 189.384 51.9263Z" fill="#814F5A"/>
<g style="mix-blend-mode:multiply" opacity="0.13">
<path d="M190.052 42.7603C181.464 46.8178 165.7 41.2972 147.284 38.5032C128.867 35.7091 92.0356 35.3108 84.7599 24.9339C82.8641 22.2301 82.163 18.6762 82.6343 14.9465C78.6462 21.4092 78.3311 28.8732 81.7144 33.6981C89.1542 44.3091 126.819 44.7172 145.651 47.5741C164.482 50.4311 180.602 56.0746 189.384 51.9274C194.795 49.3709 198.172 42.2393 196.26 35.9391C195.032 38.9288 192.813 41.4544 190.052 42.7603Z" fill="#814F5A"/>
</g>
<path d="M189.384 51.9263C180.602 56.0752 164.482 50.43 145.65 47.573C126.819 44.7161 89.1542 44.308 81.7144 33.6976C74.2746 23.0872 84.6551 -0.288944 112.869 2.27282C139.838 4.72106 163.208 13.8357 189.384 27.9837C200.991 34.26 197.415 48.132 189.384 51.9263Z" stroke="#39294E" stroke-width="2.80384" stroke-linejoin="round"/>
<path d="M114.624 142.588C119.773 144.642 126.848 163.926 131.105 181.524C136.765 204.921 138.547 242.011 127.925 244.06C113.994 246.748 95.1306 239.122 95.1306 235.909C95.1306 232.696 105.417 207.201 103.002 183.97C100.72 161.99 95.1306 150.223 95.1306 148.345C95.1306 146.467 110.748 141.043 114.624 142.588Z" fill="#EE406D"/>
<g style="mix-blend-mode:multiply" opacity="0.3">
<path d="M104.089 186.303C101.807 164.323 96.2178 152.556 96.2178 150.678C96.2178 148.801 111.836 143.378 115.712 144.924C117.6 145.676 119.742 148.747 121.912 153.192C119.378 147.495 116.826 143.464 114.625 142.587C110.748 141.04 95.1312 146.462 95.1312 148.34C95.1312 150.218 100.72 161.985 103.003 183.965C105.411 207.196 95.1312 232.689 95.1312 235.904C95.1312 236.38 95.5524 236.952 96.303 237.574C97.2281 232.448 106.379 208.364 104.089 186.303Z" fill="#EE406D"/>
</g>
<g style="mix-blend-mode:multiply" opacity="0.3">
<path d="M107.467 184.324C104.878 171.834 100.819 159.624 95.3578 147.898C95.2307 148.02 95.151 148.176 95.1306 148.342C95.1306 150.22 100.72 161.987 103.002 183.967C105.411 207.197 95.1306 232.69 95.1306 235.906C95.1306 237.393 99.1669 239.822 104.881 241.739C104.678 237.767 112.748 209.264 107.467 184.324Z" fill="#EE406D"/>
</g>
<path d="M114.624 142.588C119.773 144.642 126.848 163.926 131.105 181.524C136.765 204.921 138.547 242.011 127.925 244.06C113.994 246.748 95.1306 239.122 95.1306 235.909C95.1306 232.696 105.417 207.201 103.002 183.97C100.72 161.99 95.1306 150.223 95.1306 148.345C95.1306 146.467 110.748 141.043 114.624 142.588Z" stroke="#39294E" stroke-width="2.80384" stroke-linejoin="round"/>
<path d="M161.053 143.077C155.905 145.13 148.829 164.415 144.572 182.013C138.913 205.409 137.131 242.5 147.752 244.549C161.684 247.237 180.547 239.611 180.547 236.398C180.547 233.185 170.261 207.691 172.675 184.458C174.958 162.478 180.547 150.712 180.547 148.834C180.547 146.956 164.927 141.53 161.053 143.077Z" fill="#EE406D"/>
<g style="mix-blend-mode:multiply" opacity="0.3">
<path d="M172.674 184.454C174.956 162.474 180.545 150.707 180.545 148.83C180.545 146.952 164.927 141.53 161.051 143.076C160.659 143.244 160.298 143.464 159.981 143.73C166.361 144.467 176.842 148.431 176.842 150.017C176.842 152.015 170.898 164.53 168.47 187.91C166.294 208.866 173.828 231.545 176.168 240.04C178.873 238.693 180.545 237.348 180.545 236.393C180.545 233.178 170.262 207.686 172.674 184.454Z" fill="#EE406D"/>
</g>
<path d="M161.053 143.077C155.905 145.13 148.829 164.415 144.572 182.013C138.913 205.409 137.131 242.5 147.752 244.549C161.684 247.237 180.547 239.611 180.547 236.398C180.547 233.185 170.261 207.691 172.675 184.458C174.958 162.478 180.547 150.712 180.547 148.834C180.547 146.956 164.927 141.53 161.053 143.077Z" stroke="#39294E" stroke-width="2.80384" stroke-linejoin="round"/>
<path d="M176.363 198.135C179.837 202.986 187.154 209.035 196.479 204.242C204.146 200.3 207.429 191.486 209.969 182.87C214.313 168.133 204.795 166.476 204.795 166.476C204.795 166.476 196.455 169.648 195.306 170.732C194.157 171.817 193.007 171.387 190.927 175.972C188.847 180.557 189.284 187.52 189.284 187.52C189.284 187.52 187.684 171.932 187.435 168.006C186.666 155.843 180.186 148.707 178.8 150.015C177.414 151.323 163.177 179.724 176.363 198.135Z" fill="white"/>
<path d="M187.323 166.657C186.947 162.081 185.512 157.625 183.107 153.571C183.469 155.275 183.704 156.998 183.812 158.73C184.06 162.656 185.66 178.245 185.66 178.245C185.66 178.245 185.224 171.282 187.304 166.696L187.323 166.657Z" fill="#EFEFEF"/>
<path d="M207.446 167.687C207.306 169.685 206.936 171.665 206.343 173.595C203.804 182.211 200.521 191.024 192.854 194.966C183.53 199.76 176.214 193.71 172.737 188.859C172.338 188.301 171.965 187.733 171.615 187.157C172.396 191.054 174.008 194.781 176.361 198.135C179.835 202.986 187.152 209.035 196.477 204.242C204.143 200.3 207.427 191.486 209.966 182.87C212.73 173.494 209.883 169.417 207.446 167.687Z" fill="#EFEFEF"/>
<path d="M176.363 198.135C179.837 202.986 187.154 209.035 196.479 204.242C204.146 200.3 207.429 191.486 209.969 182.87C214.313 168.133 204.795 166.476 204.795 166.476C204.795 166.476 196.455 169.648 195.306 170.732C194.157 171.817 193.007 171.387 190.927 175.972C188.847 180.557 189.284 187.52 189.284 187.52C189.284 187.52 187.684 171.932 187.435 168.006C186.666 155.843 180.186 148.707 178.8 150.015C177.414 151.323 163.177 179.724 176.363 198.135Z" stroke="#39294E" stroke-width="2.80384" stroke-linejoin="round"/>
<path d="M130.455 272.631C130.455 272.631 136.855 275.693 145.467 271.61" stroke="#39294E" stroke-width="2.80384" stroke-linecap="round" stroke-linejoin="round"/>
<path d="M71.5795 251.509C68.5302 247.563 60.7251 234.889 64.4542 221.699C70.0529 201.886 97.5706 185.835 119.317 185.963C138.085 186.071 138.085 186.071 166.003 193.147C163.535 219.002 163.535 219.002 157.015 234.742C149.459 252.98 122.946 270.326 100.246 268.008C85.1258 266.463 74.6289 255.455 71.5795 251.509Z" fill="#FBAD62"/>
<g style="mix-blend-mode:multiply" opacity="0.4">
<path d="M65.5492 211.022C65.5492 211.022 67.8505 222.453 73.5137 227.518C76.647 230.32 78.9217 231.454 80.3285 231.908C80.5372 231.973 80.7587 231.996 80.9784 231.978C81.1981 231.96 81.4109 231.9 81.6027 231.802C81.7946 231.705 81.961 231.572 82.0911 231.413C82.2211 231.253 82.3118 231.071 82.3571 230.878L83.1754 227.518C83.1754 227.518 94.0597 228.423 99.245 227.518C102.478 230.409 108.125 231.625 114.212 230.296C119.697 229.098 135.63 220.475 135.63 218.514C135.63 216.552 95.0297 215.444 95.0297 215.444L65.5492 211.022Z" fill="#FBAD62"/>
</g>
<g style="mix-blend-mode:multiply" opacity="0.4">
<path d="M157.662 226.165C150.106 244.402 123.594 261.75 100.893 259.431C85.7761 257.888 75.2792 246.879 72.2298 242.933C69.933 239.961 64.9384 232.037 64.2087 222.672C61.115 235.51 68.6082 247.662 71.5827 251.511C74.6321 255.457 85.129 266.466 100.246 268.009C122.949 270.327 149.463 252.98 157.015 234.743C163.535 218.998 163.535 218.998 166.001 193.148L165.823 193.103C164.081 210.668 163.37 212.384 157.662 226.165Z" fill="#FBAD62"/>
</g>
<path d="M71.5795 251.509C68.5302 247.563 60.7251 234.889 64.4542 221.699C70.0529 201.886 97.5706 185.835 119.317 185.963C138.085 186.071 138.085 186.071 166.003 193.147C163.535 219.002 163.535 219.002 157.015 234.742C149.459 252.98 122.946 270.326 100.246 268.008C85.1258 266.463 74.6289 255.455 71.5795 251.509Z" stroke="#39294E" stroke-width="2.80384" stroke-linecap="round" stroke-linejoin="round"/>
<path d="M141.554 217.885L131.483 204.854L226.823 147.856L234.871 158.271L141.554 217.885Z" fill="#B55957"/>
<g style="mix-blend-mode:multiply" opacity="0.3">
<path d="M231.967 154.512L140.499 212.943L133.374 203.723L131.483 204.854L141.554 217.885L234.871 158.271L231.967 154.512Z" fill="#B55957"/>
</g>
<path d="M141.554 217.885L131.483 204.854L226.823 147.856L234.871 158.271L141.554 217.885Z" stroke="#39294E" stroke-width="2.80384" stroke-linecap="round" stroke-linejoin="round"/>
<path d="M101.887 247.355C95.4079 241.697 90.2165 234.97 86.5996 227.546C86.3802 226.994 87.606 226.237 88.1054 226.614C94.5929 232.265 99.7943 238.986 103.422 246.406C103.686 247.061 102.479 247.808 101.887 247.355Z" fill="#39294E"/>
<path d="M139.477 227.567C144.654 224.367 144.63 216.311 139.424 209.574C134.218 202.837 125.8 199.97 120.623 203.17C115.446 206.369 115.47 214.425 120.677 221.162C125.883 227.899 134.3 230.767 139.477 227.567Z" fill="#5F2E50"/>
<path d="M139.879 221.484C134.702 224.686 127.042 222.796 121.079 215.079C119.17 212.718 117.834 210.026 117.155 207.176C115.638 210.826 116.565 215.841 120.676 221.162C126.64 228.879 134.3 230.769 139.477 227.566C142.797 225.515 144.276 221.865 143.347 217.478C142.684 219.103 141.472 220.503 139.879 221.484V221.484Z" fill="#39294E"/>
<path d="M139.477 227.567C144.654 224.367 144.63 216.311 139.424 209.574C134.218 202.837 125.8 199.97 120.623 203.17C115.446 206.369 115.47 214.425 120.677 221.162C125.883 227.899 134.3 230.767 139.477 227.567Z" stroke="#39294E" stroke-width="2.80384" stroke-linecap="round" stroke-linejoin="round"/>
<path d="M233.839 132.748L236.283 136.495" stroke="#39294E" stroke-width="4.20576" stroke-linecap="round" stroke-linejoin="round"/>
<path d="M236.759 130.954L236.24 130.159C235.884 129.613 235.1 129.428 234.49 129.747L230.6 131.775C229.989 132.094 229.783 132.795 230.139 133.341L230.657 134.136C231.013 134.682 231.797 134.867 232.408 134.548L236.298 132.519C236.908 132.201 237.115 131.5 236.759 130.954Z" fill="#39294E"/>
<path d="M222.445 136.738L225.833 141.983" stroke="#39294E" stroke-width="4.20576" stroke-linecap="round" stroke-linejoin="round"/>
<path d="M225.365 134.945L224.846 134.15C224.49 133.604 223.707 133.419 223.096 133.737L219.206 135.766C218.595 136.085 218.389 136.786 218.745 137.332L219.264 138.127C219.62 138.673 220.403 138.857 221.014 138.539L224.904 136.51C225.515 136.192 225.721 135.491 225.365 134.945Z" fill="#39294E"/>
<path d="M253.154 157.741L250.099 154.372" stroke="#39294E" stroke-width="4.20576" stroke-linecap="round" stroke-linejoin="round"/>
<path d="M250.581 159.912L251.229 160.627C251.674 161.118 252.48 161.193 253.029 160.795L256.526 158.258C257.075 157.859 257.159 157.138 256.714 156.648L256.065 155.933C255.62 155.442 254.814 155.367 254.265 155.765L250.768 158.302C250.219 158.7 250.135 159.421 250.581 159.912Z" fill="#39294E"/>
<path d="M244.953 165.863L240.665 161.175" stroke="#39294E" stroke-width="4.20576" stroke-linecap="round" stroke-linejoin="round"/>
<path d="M242.379 168.035L243.028 168.75C243.473 169.241 244.279 169.316 244.828 168.918L248.325 166.38C248.874 165.982 248.958 165.261 248.512 164.77L247.864 164.055C247.419 163.564 246.613 163.489 246.064 163.888L242.567 166.425C242.018 166.823 241.934 167.544 242.379 168.035Z" fill="#39294E"/>
<path d="M258.545 140.935L253.324 134.181C252.331 132.87 250.825 131.939 249.102 131.574C247.379 131.208 245.566 131.434 244.021 132.207L215.962 147.081C215.382 147.376 214.876 147.773 214.473 148.248C214.07 148.724 213.779 149.267 213.618 149.846L211.381 158.797L217.969 167.321L228.125 168.615C228.787 168.685 229.459 168.634 230.098 168.465C230.738 168.295 231.332 168.012 231.845 167.631L257.322 149.415C258.676 148.395 259.553 146.958 259.78 145.388C260.006 143.818 259.565 142.229 258.545 140.935V140.935Z" fill="#FBAD62"/>
<g style="mix-blend-mode:multiply" opacity="0.4">
<path d="M259.829 143.011L258.545 140.935C258.79 142.753 255.481 144.945 253.618 146.125L228.141 162.263C227.064 162.954 225.739 163.265 224.421 163.136L214.265 161.989L211.646 158.986L211.381 159.923L217.969 167.472L228.125 168.618C229.443 168.748 230.768 168.437 231.845 167.745L255.958 150.388C258.77 148.608 261.92 145.406 259.829 143.011Z" fill="#FBAD62"/>
</g>
<path d="M258.545 140.935L253.324 134.181C252.331 132.87 250.825 131.939 249.102 131.574C247.379 131.208 245.566 131.434 244.021 132.207L215.962 147.081C215.382 147.376 214.876 147.773 214.473 148.248C214.07 148.724 213.779 149.267 213.618 149.846L211.381 158.797L217.969 167.321L228.125 168.615C228.787 168.685 229.459 168.634 230.098 168.465C230.738 168.295 231.332 168.012 231.845 167.631L257.322 149.415C258.676 148.395 259.553 146.958 259.78 145.388C260.006 143.818 259.565 142.229 258.545 140.935V140.935Z" stroke="#39294E" stroke-width="4.20576" stroke-linecap="round" stroke-linejoin="round"/>
<path d="M63.5707 244.693C65.2969 251.192 69.6879 256.875 75.8749 260.618C76.9099 258.852 77.3853 256.867 77.2497 254.878C77.1141 252.888 76.3726 250.969 75.1054 249.329C73.8383 247.689 72.0938 246.39 70.0607 245.573C68.0276 244.756 65.7833 244.452 63.5707 244.693V244.693Z" fill="#B55957"/>
<path d="M63.5707 244.693C65.2969 251.192 69.6879 256.875 75.8749 260.618C76.9099 258.852 77.3853 256.867 77.2497 254.878C77.1141 252.888 76.3726 250.969 75.1054 249.329C73.8383 247.689 72.0938 246.39 70.0607 245.573C68.0276 244.756 65.7833 244.452 63.5707 244.693V244.693Z" stroke="#39294E" stroke-width="2.80384" stroke-linecap="round" stroke-linejoin="round"/>
<path d="M131.127 215.443C132.906 214.876 134.005 212.624 133.275 210.632C132.585 208.744 129.76 209.046 129.76 209.046C129.76 209.046 132.555 204.765 128.493 203.2C125.387 202.003 112.804 211.667 110.561 208.227C112.152 205.317 112.727 202.046 112.213 198.84C108.107 195.168 101.165 204.562 101.165 211.923C93.2498 211.874 86.4395 209.495 83.8205 204.673L76.0305 219.714C82.5517 223.162 89.4127 225.083 100.567 223.809C103.059 227.967 112.898 227.186 119.114 225.768C126.631 224.054 130.587 222.376 132.666 220.115C134.887 217.701 133.409 215.443 131.127 215.443Z" fill="#FFAB91"/>
<path d="M133.497 212.137C133.181 212.433 132.794 212.662 132.365 212.806C132.703 212.806 133.038 212.861 133.355 212.967C133.432 212.695 133.48 212.417 133.497 212.137Z" fill="#E88B74"/>
<path d="M120.353 223.132C114.137 224.549 104.298 225.331 101.805 221.174C90.7089 222.441 83.8615 220.545 77.3703 217.13L76.0311 219.716C82.5523 223.164 89.4134 225.085 100.567 223.812C103.059 227.969 112.899 227.188 119.115 225.77C126.632 224.057 130.587 222.378 132.667 220.117C133.363 219.438 133.752 218.551 133.756 217.63C131.64 219.813 127.701 221.455 120.353 223.132Z" fill="#E88B74"/>
<path d="M103.54 203.646C102.543 205.419 101.836 207.309 101.44 209.261C101.759 209.271 102.078 209.283 102.402 209.285C102.437 207.363 102.822 205.458 103.54 203.646V203.646Z" fill="#E88B74"/>
<path d="M131.127 215.443C132.906 214.876 134.005 212.624 133.275 210.632C132.585 208.744 129.76 209.046 129.76 209.046C129.76 209.046 132.555 204.765 128.493 203.2C125.387 202.003 112.804 211.667 110.561 208.227C112.152 205.317 112.727 202.046 112.213 198.84C108.107 195.168 101.165 204.562 101.165 211.923C93.2498 211.874 86.4395 209.495 83.8205 204.673L76.0305 219.714C82.5517 223.162 89.4127 225.083 100.567 223.809C103.059 227.967 112.898 227.186 119.114 225.768C126.631 224.054 130.587 222.376 132.666 220.115C134.887 217.701 133.409 215.443 131.127 215.443Z" stroke="#39294E" stroke-width="2.80384" stroke-linejoin="round"/>
<path d="M119.974 212.995C124.866 212.116 129.757 209.047 129.757 209.047Z" fill="#FFAB91"/>
<path d="M119.974 212.995C124.866 212.116 129.757 209.047 129.757 209.047" stroke="#39294E" stroke-width="2.80384" stroke-linecap="round" stroke-linejoin="round"/>
<path d="M121.29 218.513C125.728 218.133 131.127 215.443 131.127 215.443Z" fill="#FFAB91"/>
<path d="M121.29 218.513C125.728 218.133 131.127 215.443 131.127 215.443" stroke="#39294E" stroke-width="2.80384" stroke-linecap="round" stroke-linejoin="round"/>
<path d="M88.5136 206.994C87.4167 206.108 86.4955 205.919 84.8439 203.954C72.6348 189.438 94.1534 172.885 101.557 173.424C106.879 156.732 95.5107 149.964 95.5107 149.964C70.8256 160.671 56.2546 179.806 61.7277 204.671C64.0446 215.199 70.4871 222.237 81.137 225.08C81.7555 219.773 86.213 212.414 88.5136 206.994Z" fill="white"/>
<path d="M63.6469 198.667C62.1458 192.224 62.117 185.575 63.5622 179.121C60.4543 186.726 59.6627 195.29 61.7277 204.671C64.0446 215.199 70.4871 222.237 81.137 225.08C81.4549 223.008 82.0471 220.977 82.9012 219.03C72.3464 216.16 65.9527 209.143 63.6469 198.667Z" fill="#EFEFEF"/>
<path d="M83.1772 187.074C87.3685 179.078 97.0608 173.097 101.557 173.424C102.193 171.463 102.624 169.453 102.842 167.42C96.9469 167.688 84.3159 176.667 83.1772 187.074Z" fill="#EFEFEF"/>
<path d="M83.1643 218.389C84.8211 214.481 87.0834 210.363 88.5137 206.994C88.2819 206.807 88.058 206.654 87.834 206.505C85.8556 210.537 83.7665 214.854 83.1643 218.389Z" fill="#EFEFEF"/>
<path d="M88.5136 206.994C87.4167 206.108 86.4955 205.919 84.8439 203.954C72.6348 189.438 94.1534 172.885 101.557 173.424C106.879 156.732 95.5107 149.964 95.5107 149.964C70.8256 160.671 56.2546 179.806 61.7277 204.671C64.0446 215.199 70.4871 222.237 81.137 225.08C81.7555 219.773 86.213 212.414 88.5136 206.994Z" stroke="#39294E" stroke-width="2.80384" stroke-linejoin="round"/>
<path d="M194.617 175.629C197.305 181.324 198.518 182.071 195.809 184.493C194.691 185.492 198.228 187.001 200.653 185.839C203.077 184.678 204.382 183.524 204.382 181.345C204.382 180.512 203.772 174.055 201.672 172.41C198.741 170.111 192.562 171.27 194.617 175.629Z" fill="#FFAB91"/>
<path d="M203.72 176.777C203.196 177.29 203.395 178.157 201.782 179.601C200.461 180.782 198.111 181.013 197.11 180.872C197.605 182.317 197.313 183.148 195.808 184.493C194.69 185.492 198.227 187.001 200.651 185.839C201.613 185.417 202.486 184.848 203.231 184.159C203.365 182.152 203.623 180.153 204.004 178.171C203.925 177.719 203.831 177.253 203.72 176.777Z" fill="#E88B74"/>
<path d="M203.949 174.327C203.949 181.356 204.244 183.534 205.967 183.22C207.69 182.907 209.265 182.476 209.882 181.643C210.499 180.81 211.583 179.358 211.38 175.502C211.334 173.303 211.005 171.117 210.4 168.986C209.875 166.677 203.949 166.938 203.949 174.327Z" fill="#FFAB91"/>
<path d="M204.012 178.449C204.164 182.221 204.644 183.461 205.969 183.22C207.694 182.907 209.267 182.476 209.884 181.643C210.501 180.81 211.585 179.358 211.381 175.502C211.371 175.304 211.361 175.121 211.35 174.941C207.709 180.199 204.532 178.626 204.012 178.449Z" fill="#E88B74"/>
<path d="M215.788 165.114C213.521 165.106 211.859 166.995 212.077 172.013C212.386 179.218 213.053 179.684 215.012 179.592C218.162 179.445 219.392 171.254 219.138 169.617C218.371 164.708 217.499 165.12 215.788 165.114Z" fill="#FFAB91"/>
<path d="M218.627 174.109C216.5 174.983 213.784 176.05 212.23 174.66C212.598 179.326 213.327 179.672 215.01 179.593C216.827 179.507 218.004 176.745 218.627 174.109Z" fill="#E88B74"/>
<path d="M194.617 175.629C197.305 181.324 198.518 182.071 195.809 184.493C194.691 185.492 198.228 187.001 200.653 185.839C203.077 184.678 204.382 183.524 204.382 181.345C204.382 180.512 203.772 174.055 201.672 172.41C198.741 170.111 192.562 171.27 194.617 175.629Z" stroke="#39294E" stroke-width="2.80384" stroke-linejoin="round"/>
<path d="M203.949 174.327C203.949 181.356 204.244 183.534 205.967 183.22C207.69 182.907 209.265 182.476 209.882 181.643C210.499 180.81 211.583 179.358 211.38 175.502C211.334 173.303 211.005 171.117 210.4 168.986C209.875 166.677 203.949 166.938 203.949 174.327Z" stroke="#39294E" stroke-width="2.80384" stroke-linejoin="round"/>
<path d="M215.788 165.114C213.521 165.106 211.859 166.995 212.077 172.013C212.386 179.218 213.053 179.684 215.012 179.592C218.162 179.445 219.392 171.254 219.138 169.617C218.371 164.708 217.499 165.12 215.788 165.114Z" stroke="#39294E" stroke-width="2.80384" stroke-linejoin="round"/>
<path d="M198.817 156.849C198.313 159.528 194.574 164.418 195.117 166.811C198.134 165.108 202.734 163.565 205.501 159.417C206.678 157.655 206.524 153.86 204.668 152.652C202.269 151.093 199.261 154.485 198.817 156.849Z" fill="#FFAB91" stroke="#39294E" stroke-width="2.80384" stroke-linejoin="round"/>
<path opacity="0.6" d="M96.4253 11.6861C93.8317 13.3297 90.5975 16.3276 89.8833 20.3099" stroke="white" stroke-width="2.80384" stroke-linecap="round" stroke-linejoin="round"/>
<path opacity="0.6" d="M100.654 9.84341C100.092 10.0214 99.5416 10.2288 99.0067 10.4646" stroke="white" stroke-width="2.80384" stroke-linecap="round" stroke-linejoin="round"/>
<path d="M129.451 107.165C130.804 106.596 132.234 106.185 133.705 105.942C135.169 105.683 136.658 105.55 138.15 105.544C138.897 105.534 139.648 105.584 140.389 105.621C141.131 105.717 141.878 105.757 142.608 105.917C144.076 106.165 145.502 106.583 146.85 107.161C146.921 107.191 146.979 107.243 147.012 107.307C147.045 107.372 147.051 107.444 147.03 107.512C147.009 107.58 146.961 107.639 146.895 107.679C146.83 107.718 146.751 107.736 146.672 107.728H146.654C145.204 107.587 143.808 107.385 142.392 107.309C140.982 107.21 139.573 107.154 138.16 107.177C135.315 107.203 132.475 107.387 129.656 107.727H129.637C129.558 107.736 129.479 107.719 129.413 107.681C129.347 107.642 129.298 107.583 129.276 107.515C129.253 107.448 129.258 107.375 129.29 107.31C129.322 107.245 129.378 107.193 129.449 107.161L129.451 107.165Z" fill="#E88B74"/>
<path d="M157.966 88.2993C158.486 88.4231 158.976 88.6301 159.412 88.91C159.854 89.1814 160.252 89.5056 160.596 89.8736C160.943 90.2407 161.23 90.6505 161.447 91.0905C161.669 91.525 161.806 91.9906 161.851 92.4668C161.854 92.5004 161.845 92.5339 161.824 92.5621C161.804 92.5904 161.773 92.6116 161.737 92.6224C161.702 92.6333 161.663 92.6331 161.627 92.622C161.592 92.6109 161.562 92.5895 161.541 92.5611L161.535 92.5524C161.261 92.1641 161.034 91.7816 160.757 91.4258C160.495 91.0673 160.208 90.7241 159.897 90.3982C159.268 89.7363 158.575 89.1243 157.828 88.5689L157.816 88.5596C157.788 88.5374 157.768 88.5073 157.761 88.4741C157.754 88.441 157.76 88.4066 157.777 88.3767C157.794 88.3467 157.822 88.3227 157.857 88.3087C157.891 88.2947 157.93 88.2914 157.966 88.2993V88.2993Z" fill="#39294E"/>
<path d="M113.128 92.7428C113.267 92.2786 113.498 91.8407 113.811 91.4503C114.115 91.0551 114.477 90.6989 114.889 90.3918C115.299 90.0812 115.757 89.8249 116.249 89.6308C116.735 89.4319 117.256 89.3096 117.788 89.2693C117.826 89.2664 117.863 89.2748 117.895 89.2933C117.927 89.3117 117.95 89.339 117.962 89.3709C117.975 89.4028 117.974 89.4374 117.962 89.4692C117.95 89.501 117.926 89.5282 117.894 89.5464L117.884 89.5522C117.45 89.7973 117.022 89.9999 116.624 90.2474C116.224 90.4817 115.84 90.7386 115.475 91.0165C114.735 91.5797 114.051 92.199 113.43 92.8674L113.419 92.8779C113.395 92.9034 113.361 92.9208 113.324 92.9271C113.287 92.9335 113.248 92.9284 113.214 92.9129C113.181 92.8973 113.154 92.872 113.139 92.8412C113.123 92.8103 113.119 92.7757 113.128 92.7428V92.7428Z" fill="#39294E"/>
</svg>
