<svg width="500" height="650" viewBox="0 0 500 650" fill="none" xmlns="http://www.w3.org/2000/svg">
<path d="M500 0H0V650H500V0Z" fill="#63CEB2"/>
<g style="mix-blend-mode:multiply" opacity="0.25">
<path d="M245.076 516.574C317.821 516.574 376.793 501.924 376.793 483.852C376.793 465.78 317.821 451.13 245.076 451.13C172.331 451.13 113.36 465.78 113.36 483.852C113.36 501.924 172.331 516.574 245.076 516.574Z" fill="#9A9C9B"/>
</g>
<path d="M193.281 461.3C193.281 461.3 183.494 465.715 179.057 470.856C172.766 478.144 175.975 488.548 190.914 490.116C209.038 492.018 218.305 478.123 218.643 473.031C219.061 466.748 218.879 463.707 216.4 461.152C194.962 458.398 193.281 461.3 193.281 461.3Z" fill="#39294E"/>
<path d="M193.281 461.3C193.281 461.3 183.494 465.715 179.057 470.856C172.766 478.144 175.975 488.548 190.914 490.116C209.038 492.018 218.305 478.123 218.643 473.031C219.061 466.748 218.879 463.707 216.4 461.152C194.962 458.398 193.281 461.3 193.281 461.3Z" stroke="#39294E" stroke-width="2.80384" stroke-linecap="round" stroke-linejoin="round"/>
<path d="M196.694 427.605C196.694 427.605 199.026 453.29 197.025 459.278C196.688 460.286 190.825 461.615 190.158 465.411C189.569 468.76 191.722 472.466 196.474 474.112C203.983 476.711 212.436 474.269 215.425 467.497C218.164 461.293 212.569 447.062 220.306 427.131C198.696 427.131 196.694 427.605 196.694 427.605Z" fill="#FFAB91"/>
<path d="M195.072 467.833C195.739 464.036 201.602 462.707 201.939 461.699C203.94 455.711 201.608 430.027 201.608 430.027C201.608 430.027 203.243 429.641 219.423 429.565C219.699 428.762 219.987 427.953 220.307 427.128C198.696 427.128 196.696 427.602 196.696 427.602C196.696 427.602 199.026 453.286 197.026 459.274C196.689 460.282 190.826 461.611 190.159 465.408C189.571 468.756 191.722 472.462 196.475 474.108C196.894 474.253 197.317 474.379 197.741 474.491C195.571 472.636 194.664 470.149 195.072 467.833Z" fill="#E88B74"/>
<path d="M196.694 427.605C196.694 427.605 199.026 453.29 197.025 459.278C196.688 460.286 190.825 461.615 190.158 465.411C189.569 468.76 191.722 472.466 196.474 474.112C203.983 476.711 212.436 474.269 215.425 467.497C218.164 461.293 212.569 447.062 220.306 427.131C198.696 427.131 196.694 427.605 196.694 427.605Z" stroke="#39294E" stroke-width="2.80384" stroke-linecap="round" stroke-linejoin="round"/>
<path d="M191.162 423.153C191.162 423.153 192.463 431.145 192.463 433.368C192.463 435.59 204.164 437.524 209.625 437.524C215.085 437.524 218.726 439.735 220.807 437.524C222.887 435.314 224.28 422.324 224.28 420.942C224.28 419.56 191.162 423.153 191.162 423.153Z" fill="#C65258"/>
<g style="mix-blend-mode:multiply" opacity="0.21">
<path d="M201.746 426.954C201.746 426.954 214.26 425.6 223.903 424.872C224.147 422.897 224.28 421.368 224.28 420.945C224.28 419.564 191.162 423.156 191.162 423.156C191.162 423.156 192.463 431.148 192.463 433.371C192.463 434.881 197.864 436.257 203.041 436.985C202.981 434.547 201.746 426.954 201.746 426.954Z" fill="#C65258"/>
</g>
<path d="M191.162 423.153C191.162 423.153 192.463 431.145 192.463 433.368C192.463 435.59 204.164 437.524 209.625 437.524C215.085 437.524 218.726 439.735 220.807 437.524C222.887 435.314 224.28 422.324 224.28 420.942C224.28 419.56 191.162 423.153 191.162 423.153Z" stroke="#39294E" stroke-width="2.80384" stroke-linecap="round" stroke-linejoin="round"/>
<path opacity="0.6" d="M198.715 484.143C198.963 484.079 199.203 483.988 199.433 483.872" stroke="white" stroke-width="2.80384" stroke-linecap="round" stroke-linejoin="round"/>
<path opacity="0.6" d="M187.845 483.132C187.845 483.132 190.191 485.673 195.977 484.742" stroke="white" stroke-width="2.80384" stroke-linecap="round" stroke-linejoin="round"/>
<path d="M302.631 470.191C308.922 477.48 310.343 487.924 295.404 489.492C277.28 491.394 266.611 479.586 266.27 474.494C265.851 468.212 266.176 463.508 268.656 460.954C290.094 458.199 298.193 465.05 302.631 470.191Z" fill="#39294E"/>
<path d="M302.631 470.191C308.922 477.48 310.343 487.924 295.404 489.492C277.28 491.394 266.611 479.586 266.27 474.494C265.851 468.212 266.176 463.508 268.656 460.954C290.094 458.199 298.193 465.05 302.631 470.191Z" stroke="#39294E" stroke-width="2.80384" stroke-linecap="round" stroke-linejoin="round"/>
<path d="M286.756 427.605C286.756 427.605 284.424 453.29 286.425 459.278C286.762 460.286 294.936 467.159 288.501 472.462C285.969 474.549 272.771 474.269 269.781 467.497C267.042 461.293 270.881 447.062 263.144 427.131C284.754 427.131 286.756 427.605 286.756 427.605Z" fill="#FFAB91"/>
<path d="M274.724 467.941C271.984 461.736 275.824 447.505 268.087 427.574C277.615 427.574 283.328 427.667 286.741 427.77C286.749 427.673 286.756 427.605 286.756 427.605C286.756 427.605 284.754 427.131 263.144 427.131C270.881 447.063 267.043 461.293 269.781 467.498C271.814 472.102 278.561 473.703 283.471 473.602C279.746 472.851 276.12 471.105 274.724 467.941Z" fill="#E88B74"/>
<path d="M286.756 427.605C286.756 427.605 284.424 453.29 286.425 459.278C286.762 460.286 296.052 469.222 288.501 472.462C283.764 474.493 272.771 474.269 269.781 467.497C267.042 461.293 270.881 447.062 263.144 427.131C284.754 427.131 286.756 427.605 286.756 427.605Z" stroke="#39294E" stroke-width="2.80384" stroke-linecap="round" stroke-linejoin="round"/>
<path d="M292.288 425.051C292.288 425.051 290.988 433.04 290.988 435.266C290.988 437.492 281.051 439.361 275.729 440.662C271.707 441.644 264.724 441.633 262.644 439.423C260.563 437.212 259.171 424.222 259.171 422.84C259.171 421.458 292.288 425.051 292.288 425.051Z" fill="#C65258"/>
<g style="mix-blend-mode:multiply" opacity="0.21">
<path d="M269.589 439.422C267.509 437.212 266.116 424.222 266.116 422.84C266.116 422.788 266.18 422.745 266.27 422.705C262.129 422.459 259.171 422.427 259.171 422.84C259.171 424.222 260.563 437.212 262.644 439.422C264.392 441.28 269.598 441.581 273.604 441.047C271.851 440.775 270.372 440.255 269.589 439.422Z" fill="#C65258"/>
</g>
<path d="M292.288 425.051C292.288 425.051 290.988 433.04 290.988 435.266C290.988 437.492 281.051 439.361 275.729 440.662C271.707 441.644 264.724 441.633 262.644 439.423C260.563 437.212 259.171 424.222 259.171 422.84C259.171 421.458 292.288 425.051 292.288 425.051Z" stroke="#39294E" stroke-width="2.80384" stroke-linecap="round" stroke-linejoin="round"/>
<path opacity="0.6" d="M289.595 484.881C291.579 485 294.585 485.201 296.752 483.673" stroke="white" stroke-width="2.80384" stroke-linecap="round" stroke-linejoin="round"/>
<path opacity="0.6" d="M285.639 484.143C285.639 484.143 285.739 484.143 286.624 484.336" stroke="white" stroke-width="2.80384" stroke-linecap="round" stroke-linejoin="round"/>
<path d="M258.521 230.068H236.433C236.433 230.068 238.23 219.32 238.439 215.931C238.77 210.597 238.09 196.139 238.09 196.139H256.864C256.864 196.139 256.184 210.597 256.515 215.931C256.725 219.32 258.521 230.068 258.521 230.068Z" fill="#FFAB91"/>
<path d="M238.09 196.139C238.09 196.139 238.238 199.272 238.362 203.16C241.252 204.527 244.398 205.177 247.56 205.063C250.722 204.948 253.818 204.07 256.614 202.497V202.497C256.733 198.922 256.864 196.139 256.864 196.139H238.09Z" fill="#E88B74"/>
<path d="M258.521 230.068H236.433C236.433 230.068 238.23 219.32 238.439 215.931C238.77 210.597 238.09 196.139 238.09 196.139H256.864C256.864 196.139 256.184 210.597 256.515 215.931C256.725 219.32 258.521 230.068 258.521 230.068Z" stroke="#39294E" stroke-width="2.80384" stroke-linejoin="round"/>
<path d="M256.823 215.129C255.763 219.64 252.612 223.941 247.19 223.941C241.768 223.941 238.617 219.64 237.56 215.129L222.996 216.077L225.757 316.435H268.273L271.033 216.077L256.823 215.129Z" fill="white"/>
<path d="M237.56 219.356C238.546 220.812 241.771 223.941 247.193 223.941C252.615 223.941 255.586 222.309 256.826 219.356L270.918 220.297L271.033 216.078L256.828 215.13C255.768 219.641 252.617 223.942 247.195 223.942C241.773 223.942 238.617 219.64 237.56 215.129L222.996 216.077L223.112 220.296L237.56 219.356Z" fill="#EFEFEF"/>
<path d="M256.823 215.129C255.763 219.64 252.612 223.941 247.19 223.941C241.768 223.941 238.617 219.64 237.56 215.129L222.996 216.077L225.757 316.435H268.273L271.033 216.077L256.823 215.129Z" stroke="#39294E" stroke-width="2.80384" stroke-linejoin="round"/>
<path d="M281.327 316.437C281.327 316.437 283.076 335.106 300.043 374.019C311.645 400.625 300.362 427.2 282.863 431.838C268.27 435.707 254.707 432.961 250.503 415.133C246.795 399.394 253.162 377.654 250.876 366.784C246.64 367.805 244.779 367.775 241.678 366.784C233.665 385.879 239.777 407.017 231.729 418.465C224.124 429.285 204.343 434.177 189.55 423.905C174.281 413.303 176.957 392.681 190.832 369.587C202.613 349.977 211.991 326.526 213.753 313.392C218.304 313.392 281.327 316.437 281.327 316.437Z" fill="#5F2E50"/>
<g style="mix-blend-mode:overlay" opacity="0.22">
<g style="mix-blend-mode:overlay" opacity="0.22">
<path d="M200.624 421.072C185.354 410.469 188.03 389.848 201.906 366.753C212.777 348.657 221.598 327.296 224.28 313.783C218.745 313.545 214.775 313.392 213.754 313.392C211.992 326.525 202.614 349.977 190.833 369.587C176.959 392.681 174.283 413.303 189.552 423.905C199.7 430.951 212.194 430.861 221.496 426.613C214.155 427.25 206.821 425.303 200.624 421.072V421.072Z" fill="#5F2E50"/>
</g>
<g style="mix-blend-mode:overlay" opacity="0.22">
<path d="M261.575 412.3C256.487 397.495 260.371 368.792 254.855 364.663C250.62 365.684 251.603 366.918 251.139 368.415C252.573 379.716 246.971 400.143 250.502 415.133C254.702 432.961 268.268 435.707 282.861 431.838C284.233 431.468 285.57 430.965 286.856 430.335C275.135 431.559 266.533 426.724 261.575 412.3Z" fill="#5F2E50"/>
</g>
</g>
<path d="M269.368 276.518C269.368 276.518 270.536 320.364 256.13 344.489C244.083 364.664 219.721 368.366 212.808 368.581C207.162 368.662 201.579 367.319 196.516 364.663L201.746 338.005L269.368 276.518Z" fill="#5A2849"/>
<path d="M281.327 316.437C281.327 316.437 283.076 335.106 300.043 374.019C311.645 400.625 300.362 427.2 282.863 431.838C268.27 435.707 254.707 432.961 250.503 415.133C246.795 399.394 253.162 377.654 250.876 366.784C247.84 367.431 244.714 367.431 241.678 366.784C233.665 385.879 239.777 407.017 231.729 418.465C224.124 429.285 204.343 434.177 189.55 423.905C174.281 413.303 176.957 392.681 190.832 369.587C202.613 349.977 211.991 326.526 213.753 313.392C218.304 313.392 281.327 316.437 281.327 316.437Z" stroke="#39294E" stroke-width="2.80384" stroke-linecap="round" stroke-linejoin="round"/>
<path d="M247.477 155.722C272.248 155.722 296.839 151.228 300.196 132.944C302.577 119.973 298.459 99.6262 293.826 90.9606L290.531 84.7322L247.48 84.2278L204.426 87.0712C204.426 87.0712 185.458 107.309 195.417 130.332C202.735 147.26 222.706 155.722 247.477 155.722Z" fill="#39294E" stroke="#39294E" stroke-width="2.80384" stroke-linejoin="round"/>
<path d="M202.281 150.344C196.258 156.746 186.667 147.333 187.822 134.674C188.423 128.066 195.809 122.615 202.88 130.967C202.877 130.967 206.283 146.094 202.281 150.344Z" fill="#FFAB91"/>
<path d="M202.581 136.526C203.285 139.826 203.726 143.183 203.901 146.561C205.021 140.505 202.877 130.967 202.877 130.967C195.806 122.615 188.42 128.066 187.819 134.674C187.7 135.991 187.697 137.318 187.809 138.636C189.339 132.824 196.091 128.86 202.581 136.526Z" fill="#E88B74"/>
<path d="M202.281 150.344C196.258 156.746 186.667 147.333 187.822 134.674C188.423 128.066 195.809 122.615 202.88 130.967C202.877 130.967 206.283 146.094 202.281 150.344Z" stroke="#39294E" stroke-width="2.80384" stroke-linejoin="round"/>
<path d="M198.201 140.755C197.985 140.059 197.703 139.388 197.359 138.752C197.027 138.111 196.609 137.525 196.117 137.012C195.647 136.519 195.072 136.153 194.441 135.944C193.785 135.785 193.1 135.806 192.454 136.007L192.412 136.018C192.318 136.042 192.218 136.026 192.134 135.975C192.05 135.924 191.987 135.84 191.958 135.742C191.93 135.643 191.938 135.536 191.981 135.444C192.023 135.351 192.098 135.279 192.189 135.242C192.964 134.897 193.81 134.773 194.644 134.881C195.482 135.043 196.27 135.419 196.941 135.976C197.59 136.512 198.162 137.146 198.638 137.857C199.124 138.557 199.54 139.309 199.879 140.101C199.97 140.33 199.973 140.588 199.888 140.819C199.802 141.051 199.635 141.238 199.422 141.34C199.208 141.442 198.966 141.451 198.746 141.366C198.527 141.281 198.347 141.107 198.246 140.883C198.232 140.849 198.22 140.815 198.209 140.781L198.201 140.755Z" fill="#39294E"/>
<path d="M292.673 150.344C298.696 156.746 308.288 147.333 307.133 134.674C306.532 128.066 299.145 122.615 292.075 130.967C292.077 130.967 288.674 146.094 292.673 150.344Z" fill="#FFAB91"/>
<path d="M292.077 134.966C299.148 126.615 306.537 132.065 307.135 138.674C307.135 138.686 307.135 138.7 307.135 138.713C307.256 137.37 307.256 136.017 307.135 134.674C306.534 128.066 299.147 122.615 292.077 130.967C292.077 130.967 290.398 138.443 290.789 144.36C290.989 141.198 291.42 138.058 292.077 134.966V134.966Z" fill="#E88B74"/>
<path d="M292.673 150.344C298.696 156.746 308.288 147.333 307.133 134.674C306.532 128.066 299.145 122.615 292.075 130.967C292.077 130.967 288.674 146.094 292.673 150.344Z" stroke="#39294E" stroke-width="2.80384" stroke-linejoin="round"/>
<path d="M295.069 140.126C295.377 139.388 295.763 138.69 296.22 138.045C296.666 137.4 297.19 136.821 297.779 136.322C298.385 135.826 299.078 135.462 299.817 135.252C300.549 135.07 301.31 135.059 302.046 135.22C302.123 135.234 302.191 135.278 302.239 135.343C302.286 135.409 302.308 135.49 302.301 135.572C302.294 135.654 302.259 135.731 302.201 135.786C302.144 135.841 302.069 135.871 301.992 135.871H301.956C301.322 135.829 300.688 135.933 300.095 136.175C299.526 136.435 299.01 136.811 298.577 137.282C298.146 137.771 297.776 138.317 297.478 138.907C297.178 139.487 296.939 140.1 296.764 140.735L296.759 140.753C296.729 140.874 296.676 140.987 296.604 141.086C296.532 141.185 296.442 141.268 296.34 141.33C296.238 141.392 296.126 141.433 296.009 141.449C295.892 141.465 295.774 141.456 295.66 141.423C295.547 141.39 295.44 141.334 295.347 141.258C295.254 141.181 295.176 141.086 295.117 140.978C295.059 140.869 295.021 140.75 295.006 140.626C294.991 140.502 294.999 140.376 295.03 140.255C295.04 140.211 295.054 140.168 295.069 140.126V140.126Z" fill="#39294E"/>
<path d="M293.83 126.458C291.357 116.274 287.842 106.409 283.35 97.0367L247.477 96.5703L211.605 97.0367C207.113 106.409 203.598 116.275 201.123 126.458C196.833 143.938 198.698 171.015 214.21 186.726C224.313 196.96 241.187 199.627 247.477 199.627C253.766 199.627 270.641 196.96 280.744 186.726C296.256 171.015 298.121 143.938 293.83 126.458Z" fill="#FFAB91"/>
<path d="M280.745 183.238C270.642 193.472 253.767 196.139 247.477 196.139C241.187 196.139 224.313 193.472 214.211 183.238C203.704 172.596 199.464 156.743 199.151 142.187C198.821 157.643 202.858 175.224 214.211 186.726C224.313 196.96 241.187 199.627 247.477 199.627C253.767 199.627 270.642 196.96 280.745 186.726C292.097 175.227 296.134 157.643 295.804 142.187C295.491 156.743 291.251 172.596 280.745 183.238Z" fill="#E88B74"/>
<path d="M201.563 124.719L211.605 97.0367L210.649 95.1411L221.068 97.3556C221.068 97.3556 237.439 93.0844 238.035 93.0844H254.964C256.507 93.0844 279.412 95.1411 279.858 95.6157C280.305 96.0903 289.3 110.923 289.3 110.923C289.3 110.923 292.258 117.866 293.083 123.542C262.681 131.36 237.769 105.916 237.769 105.916C237.769 105.916 222.612 105.229 213.737 102.906C211.011 107.524 201.562 124.721 201.562 124.721" fill="#E88B74"/>
<path d="M293.83 126.458C291.357 116.274 287.842 106.409 283.35 97.0367L247.477 96.5703L211.605 97.0367C207.113 106.409 203.598 116.275 201.123 126.458C196.833 143.938 198.698 171.015 214.21 186.726C224.313 196.96 241.187 199.627 247.477 199.627C253.766 199.627 270.641 196.96 280.744 186.726C296.256 171.015 298.121 143.938 293.83 126.458Z" stroke="#39294E" stroke-width="2.80384" stroke-linejoin="round"/>
<path d="M253.255 147.213C252.956 146.894 252.59 146.657 252.187 146.52C251.76 146.35 251.32 146.217 250.873 146.123C249.059 145.739 247.191 145.739 245.376 146.123C244.929 146.217 244.49 146.35 244.063 146.52C243.66 146.657 243.293 146.894 242.993 147.211L242.96 147.254C242.924 147.299 242.874 147.329 242.819 147.339C242.765 147.35 242.708 147.34 242.66 147.311C242.611 147.283 242.574 147.237 242.553 147.183C242.532 147.128 242.53 147.067 242.547 147.011C242.759 146.445 243.145 145.973 243.642 145.67C244.086 145.366 244.564 145.122 245.065 144.945C247.05 144.234 249.2 144.234 251.185 144.945C251.685 145.123 252.163 145.366 252.608 145.669C253.105 145.972 253.491 146.445 253.703 147.01C253.721 147.067 253.719 147.128 253.698 147.183C253.677 147.239 253.639 147.285 253.59 147.313C253.541 147.342 253.485 147.352 253.429 147.341C253.374 147.33 253.325 147.299 253.289 147.254L253.255 147.213Z" fill="#39294E"/>
<path d="M228.618 155.384C229.85 156.624 231.247 157.665 232.764 158.474C234.277 159.308 235.868 159.974 237.509 160.463C244.144 162.404 251.149 162.398 257.781 160.445C259.42 159.955 261.008 159.287 262.519 158.451C264.032 157.641 265.425 156.6 266.653 155.362L266.662 155.353C266.755 155.259 266.878 155.207 267.007 155.206C267.135 155.206 267.259 155.258 267.352 155.352C267.445 155.445 267.502 155.573 267.509 155.709C267.517 155.845 267.475 155.979 267.392 156.084C266.188 157.536 264.772 158.772 263.197 159.746C261.632 160.706 259.977 161.489 258.259 162.083C251.353 164.394 243.944 164.388 237.041 162.066C235.325 161.47 233.673 160.684 232.11 159.723C230.54 158.749 229.127 157.512 227.926 156.061C227.85 155.963 227.812 155.838 227.819 155.711C227.826 155.585 227.878 155.465 227.965 155.378C228.052 155.291 228.167 155.242 228.286 155.241C228.406 155.24 228.521 155.288 228.609 155.374L228.618 155.384Z" fill="#39294E"/>
<path d="M230.06 129.464C232.526 129.464 234.525 127.34 234.525 124.718C234.525 122.097 232.526 119.973 230.06 119.973C227.594 119.973 225.594 122.097 225.594 124.718C225.594 127.34 227.594 129.464 230.06 129.464Z" fill="#39294E"/>
<path d="M219.417 119.699C219.942 118.289 220.751 117.019 221.788 115.978C222.828 114.921 224.039 114.069 225.361 113.463C226.663 112.865 228.039 112.467 229.447 112.281C230.849 112.075 232.274 112.115 233.664 112.4C233.88 112.447 234.073 112.574 234.209 112.757C234.346 112.94 234.418 113.169 234.411 113.403C234.405 113.637 234.321 113.86 234.175 114.035C234.028 114.21 233.829 114.324 233.611 114.358L233.524 114.371C232.337 114.551 231.067 114.761 229.876 115.029C228.686 115.299 227.515 115.656 226.372 116.098C225.243 116.535 224.161 117.1 223.146 117.784C222.105 118.509 221.132 119.336 220.237 120.255L220.197 120.292C220.114 120.371 220.007 120.417 219.896 120.423C219.785 120.43 219.674 120.396 219.584 120.327C219.493 120.258 219.427 120.158 219.397 120.044C219.366 119.93 219.373 119.808 219.416 119.699H219.417Z" fill="#39294E"/>
<path d="M266.897 129.464C269.363 129.464 271.362 127.34 271.362 124.718C271.362 122.097 269.363 119.973 266.897 119.973C264.431 119.973 262.431 122.097 262.431 124.718C262.431 127.34 264.431 129.464 266.897 129.464Z" fill="#39294E"/>
<path d="M276.608 118.55L264.776 114.041" stroke="#39294E" stroke-width="4.20576" stroke-linecap="round" stroke-linejoin="round"/>
<path d="M243.124 93.0816C243.124 93.0816 232.522 98.2004 246.579 106.369C256.549 112.163 284.397 127.034 295.828 121.339C307.259 115.644 300.196 104.788 298.112 102.573C295.433 105.42 249.118 99.4529 243.124 93.0816Z" fill="#C65258"/>
<g style="mix-blend-mode:multiply" opacity="0.22">
<path d="M293.739 115.89C298.545 113.496 300.511 110.311 300.962 107.106C300.245 105.443 299.282 103.912 298.112 102.57C295.433 105.417 249.118 99.4502 243.124 93.0789C243.124 93.0789 240.601 98.891 242.77 103.426C269.552 118.55 281.526 121.977 293.739 115.89Z" fill="#C65258"/>
</g>
<path d="M243.124 93.0816C243.124 93.0816 232.522 98.2004 246.579 106.369C256.549 112.163 284.397 127.034 295.828 121.339C307.259 115.644 300.196 104.788 298.112 102.573C295.433 105.42 249.118 99.4529 243.124 93.0816Z" stroke="#39294E" stroke-width="2.80384" stroke-linejoin="round"/>
<path d="M297.831 109.217C289.239 114.041 273.466 107.477 255.04 104.155C236.613 100.833 199.76 100.358 192.48 88.0204C185.2 75.6828 195.357 48.5012 222.964 51.48C249.353 54.3268 272.219 64.9253 297.831 81.3764C309.189 88.6744 305.689 104.805 297.831 109.217Z" fill="#814F5A"/>
<g style="mix-blend-mode:multiply" opacity="0.13">
<path d="M298.485 98.5585C290.082 103.277 274.658 96.8572 256.638 93.6083C238.618 90.3594 202.579 89.8963 195.46 77.8302C193.605 74.6862 192.919 70.5538 193.38 66.2169C189.478 73.7316 189.169 82.4107 192.48 88.021C199.76 100.359 236.613 100.834 255.04 104.156C273.466 107.478 289.239 114.04 297.831 109.218C303.126 106.245 306.431 97.9526 304.559 90.6268C303.358 94.1032 301.187 97.04 298.485 98.5585Z" fill="#814F5A"/>
</g>
<path d="M297.831 109.217C289.239 114.041 273.466 107.477 255.04 104.155C236.613 100.833 199.76 100.358 192.48 88.0204C185.2 75.6828 195.357 48.5012 222.964 51.48C249.353 54.3268 272.219 64.9253 297.831 81.3764C309.189 88.6744 305.689 104.805 297.831 109.217Z" stroke="#39294E" stroke-width="2.80384" stroke-linejoin="round"/>
<path d="M224.681 214.638C229.719 217.026 236.642 239.449 240.807 259.912C246.345 287.117 248.089 330.246 237.696 332.628C224.064 335.754 205.607 326.886 205.607 323.15C205.607 319.414 215.672 289.769 213.309 262.755C211.076 237.197 205.607 223.515 205.607 221.331C205.607 219.147 220.889 212.84 224.681 214.638Z" fill="#EE406D"/>
<g style="mix-blend-mode:multiply" opacity="0.3">
<path d="M214.373 265.468C212.14 239.91 206.671 226.228 206.671 224.045C206.671 221.861 221.953 215.556 225.745 217.354C227.593 218.228 229.689 221.799 231.812 226.967C229.332 220.343 226.835 215.656 224.682 214.636C220.889 212.837 205.608 219.142 205.608 221.326C205.608 223.509 211.076 237.192 213.31 262.75C215.667 289.762 205.608 319.405 205.608 323.145C205.608 323.698 206.02 324.363 206.754 325.085C207.66 319.125 216.614 291.121 214.373 265.468Z" fill="#EE406D"/>
</g>
<g style="mix-blend-mode:multiply" opacity="0.3">
<path d="M217.678 263.167C215.145 248.644 211.174 234.447 205.83 220.812C205.705 220.954 205.627 221.135 205.607 221.328C205.607 223.512 211.076 237.194 213.309 262.752C215.666 289.764 205.607 319.407 205.607 323.147C205.607 324.876 209.557 327.7 215.148 329.929C214.95 325.311 222.845 292.167 217.678 263.167Z" fill="#EE406D"/>
</g>
<path d="M224.681 214.638C229.719 217.026 236.642 239.449 240.807 259.912C246.345 287.117 248.089 330.246 237.696 332.628C224.064 335.754 205.607 326.886 205.607 323.15C205.607 319.414 215.672 289.769 213.309 262.755C211.076 237.197 205.607 223.515 205.607 221.331C205.607 219.147 220.889 212.84 224.681 214.638Z" stroke="#39294E" stroke-width="2.80384" stroke-linejoin="round"/>
<path d="M270.11 215.206C265.073 217.593 258.15 240.017 253.985 260.48C248.447 287.685 246.703 330.814 257.096 333.197C270.728 336.322 289.185 327.454 289.185 323.719C289.185 319.983 279.12 290.338 281.483 263.323C283.716 237.765 289.185 224.083 289.185 221.9C289.185 219.717 273.901 213.407 270.11 215.206Z" fill="#EE406D"/>
<g style="mix-blend-mode:multiply" opacity="0.3">
<path d="M281.481 263.319C283.714 237.761 289.183 224.078 289.183 221.895C289.183 219.712 273.901 213.407 270.109 215.204C269.725 215.4 269.372 215.656 269.061 215.965C275.304 216.822 285.56 221.431 285.56 223.276C285.56 225.599 279.743 240.152 277.368 267.337C275.238 291.705 282.61 318.075 284.9 327.953C287.546 326.387 289.183 324.823 289.183 323.713C289.183 319.975 279.121 290.332 281.481 263.319Z" fill="#EE406D"/>
</g>
<path d="M270.11 215.206C265.073 217.593 258.15 240.017 253.985 260.48C248.447 287.685 246.703 330.814 257.096 333.197C270.728 336.322 289.185 327.454 289.185 323.719C289.185 319.983 279.12 290.338 281.483 263.323C283.716 237.765 289.185 224.083 289.185 221.9C289.185 219.717 273.901 213.407 270.11 215.206Z" stroke="#39294E" stroke-width="2.80384" stroke-linejoin="round"/>
<path d="M285.091 279.226C288.49 284.867 295.65 291.902 304.774 286.328C312.276 281.744 315.488 271.495 317.973 261.477C322.224 244.341 312.911 242.414 312.911 242.414C312.911 242.414 304.751 246.102 303.626 247.363C302.502 248.624 301.376 248.125 299.341 253.456C297.306 258.788 297.733 266.884 297.733 266.884C297.733 266.884 296.168 248.758 295.925 244.193C295.172 230.05 288.832 221.752 287.476 223.273C286.12 224.795 272.188 257.818 285.091 279.226Z" fill="white"/>
<path d="M295.815 242.624C295.447 237.303 294.043 232.122 291.69 227.409C292.044 229.39 292.274 231.394 292.38 233.407C292.623 237.972 294.188 256.099 294.188 256.099C294.188 256.099 293.761 248.002 295.796 242.67L295.815 242.624Z" fill="#EFEFEF"/>
<path d="M315.505 243.822C315.368 246.145 315.006 248.447 314.425 250.691C311.941 260.711 308.729 270.958 301.227 275.542C292.104 281.116 284.945 274.081 281.543 268.44C281.152 267.792 280.788 267.131 280.445 266.462C281.21 270.994 282.786 275.327 285.089 279.226C288.488 284.867 295.648 291.902 304.772 286.328C312.274 281.744 315.486 271.495 317.971 261.477C320.676 250.575 317.89 245.833 315.505 243.822Z" fill="#EFEFEF"/>
<path d="M285.091 279.226C288.49 284.867 295.65 291.902 304.774 286.328C312.276 281.744 315.488 271.495 317.973 261.477C322.224 244.341 312.911 242.414 312.911 242.414C312.911 242.414 304.751 246.102 303.626 247.363C302.502 248.624 301.376 248.125 299.341 253.456C297.306 258.788 297.733 266.884 297.733 266.884C297.733 266.884 296.168 248.758 295.925 244.193C295.172 230.05 288.832 221.752 287.476 223.273C286.12 224.795 272.188 257.818 285.091 279.226Z" stroke="#39294E" stroke-width="2.80384" stroke-linejoin="round"/>
<path d="M240.172 365.85C240.172 365.85 246.434 369.411 254.86 364.663" stroke="#39294E" stroke-width="2.80384" stroke-linecap="round" stroke-linejoin="round"/>
<path d="M182.563 341.289C179.579 336.701 171.942 321.964 175.591 306.627C181.069 283.589 207.995 264.924 229.273 265.073C247.637 265.199 247.637 265.199 274.954 273.426C272.539 303.491 272.539 303.491 266.159 321.793C258.766 343 232.824 363.17 210.613 360.475C195.818 358.678 185.547 345.877 182.563 341.289Z" fill="#FBAD62"/>
<g style="mix-blend-mode:multiply" opacity="0.4">
<path d="M176.663 294.212C176.663 294.212 178.914 307.504 184.456 313.393C187.522 316.651 189.747 317.97 191.124 318.498C191.328 318.573 191.545 318.6 191.76 318.579C191.975 318.558 192.183 318.488 192.371 318.375C192.558 318.262 192.721 318.107 192.848 317.922C192.976 317.736 193.064 317.525 193.109 317.3L193.909 313.393C193.909 313.393 204.559 314.445 209.633 313.393C212.796 316.754 218.322 318.169 224.278 316.624C229.645 315.23 245.235 305.204 245.235 302.923C245.235 300.642 205.508 299.354 205.508 299.354L176.663 294.212Z" fill="#FBAD62"/>
</g>
<g style="mix-blend-mode:multiply" opacity="0.4">
<path d="M266.792 311.82C259.399 333.026 233.457 353.197 211.246 350.501C196.454 348.707 186.183 335.906 183.199 331.318C180.952 327.862 176.065 318.648 175.351 307.758C172.324 322.686 179.656 336.817 182.566 341.292C185.55 345.88 195.821 358.681 210.613 360.476C232.827 363.171 258.77 343 266.159 321.794C272.539 303.486 272.539 303.486 274.952 273.428L274.778 273.376C273.074 293.8 272.378 295.796 266.792 311.82Z" fill="#FBAD62"/>
</g>
<path d="M182.563 341.289C179.579 336.701 171.942 321.964 175.591 306.627C181.069 283.589 207.995 264.924 229.273 265.073C247.637 265.199 247.637 265.199 274.954 273.426C272.539 303.491 272.539 303.491 266.159 321.793C258.766 343 232.824 363.17 210.613 360.475C195.818 358.678 185.547 345.877 182.563 341.289Z" stroke="#39294E" stroke-width="2.80384" stroke-linecap="round" stroke-linejoin="round"/>
<path d="M251.031 302.191L241.177 287.039L334.465 220.763L342.34 232.873L251.031 302.191Z" fill="#B55957"/>
<g style="mix-blend-mode:multiply" opacity="0.3">
<path d="M339.498 228.502L249.999 296.446L243.027 285.725L241.177 287.039L251.031 302.191L342.34 232.873L339.498 228.502Z" fill="#B55957"/>
</g>
<path d="M251.031 302.191L241.177 287.039L334.465 220.763L342.34 232.873L251.031 302.191Z" stroke="#39294E" stroke-width="2.80384" stroke-linecap="round" stroke-linejoin="round"/>
<path d="M212.218 336.46C205.879 329.881 200.799 322.058 197.26 313.425C197.045 312.784 198.245 311.903 198.733 312.342C205.081 318.912 210.171 326.728 213.72 335.356C213.979 336.118 212.798 336.986 212.218 336.46Z" fill="#39294E"/>
<path d="M248.999 313.45C254.065 309.729 254.042 300.362 248.947 292.528C243.853 284.694 235.617 281.36 230.551 285.081C225.485 288.802 225.509 298.169 230.603 306.002C235.698 313.836 243.934 317.17 248.999 313.45Z" fill="#5F2E50"/>
<path d="M249.393 306.377C244.327 310.1 236.832 307.903 230.997 298.93C229.129 296.184 227.822 293.053 227.158 289.739C225.673 293.984 226.58 299.815 230.603 306.002C236.439 314.975 243.934 317.173 248.999 313.449C252.248 311.063 253.695 306.819 252.786 301.719C252.137 303.608 250.951 305.236 249.393 306.377V306.377Z" fill="#39294E"/>
<path d="M248.999 313.45C254.065 309.729 254.042 300.362 248.947 292.528C243.853 284.694 235.617 281.36 230.551 285.081C225.485 288.802 225.509 298.169 230.603 306.002C235.698 313.836 243.934 317.17 248.999 313.45Z" stroke="#39294E" stroke-width="2.80384" stroke-linecap="round" stroke-linejoin="round"/>
<path d="M341.33 203.195L343.721 207.552" stroke="#39294E" stroke-width="4.20576" stroke-linecap="round" stroke-linejoin="round"/>
<path d="M344.186 201.109L343.679 200.185C343.331 199.55 342.564 199.335 341.966 199.705L338.16 202.064C337.563 202.435 337.361 203.25 337.709 203.885L338.217 204.809C338.565 205.444 339.332 205.659 339.929 205.289L343.736 202.93C344.333 202.559 344.535 201.744 344.186 201.109Z" fill="#39294E"/>
<path d="M330.181 207.835L333.496 213.934" stroke="#39294E" stroke-width="4.20576" stroke-linecap="round" stroke-linejoin="round"/>
<path d="M333.038 205.75L332.531 204.825C332.182 204.19 331.416 203.976 330.818 204.346L327.012 206.705C326.414 207.075 326.212 207.89 326.561 208.525L327.068 209.45C327.417 210.085 328.183 210.299 328.781 209.929L332.587 207.57C333.185 207.2 333.386 206.385 333.038 205.75Z" fill="#39294E"/>
<path d="M360.229 232.257L357.239 228.34" stroke="#39294E" stroke-width="4.20576" stroke-linecap="round" stroke-linejoin="round"/>
<path d="M357.711 234.782L358.345 235.613C358.781 236.184 359.57 236.271 360.107 235.808L363.529 232.858C364.066 232.395 364.148 231.556 363.712 230.986L363.078 230.154C362.642 229.584 361.853 229.496 361.316 229.959L357.894 232.91C357.357 233.373 357.275 234.211 357.711 234.782Z" fill="#39294E"/>
<path d="M352.204 241.701L348.009 236.25" stroke="#39294E" stroke-width="4.20576" stroke-linecap="round" stroke-linejoin="round"/>
<path d="M349.686 244.227L350.321 245.058C350.756 245.629 351.545 245.716 352.082 245.253L355.504 242.303C356.041 241.84 356.123 241.001 355.687 240.431L355.053 239.599C354.617 239.028 353.828 238.941 353.291 239.404L349.87 242.355C349.332 242.818 349.25 243.656 349.686 244.227Z" fill="#39294E"/>
<path d="M365.504 212.715L360.395 204.862C359.424 203.337 357.95 202.255 356.264 201.83C354.579 201.405 352.804 201.668 351.292 202.566L323.838 219.862C323.27 220.205 322.775 220.667 322.381 221.219C321.986 221.772 321.702 222.404 321.544 223.076L319.356 233.485L325.801 243.397L335.739 244.902C336.387 244.983 337.044 244.923 337.669 244.726C338.295 244.529 338.877 244.2 339.379 243.757L364.307 222.575C365.632 221.39 366.49 219.719 366.712 217.893C366.934 216.067 366.502 214.219 365.504 212.715V212.715Z" fill="#FBAD62"/>
<g style="mix-blend-mode:multiply" opacity="0.4">
<path d="M366.761 215.129L365.504 212.715C365.744 214.829 362.506 217.378 360.683 218.75L335.755 237.515C334.701 238.319 333.404 238.68 332.115 238.53L322.178 237.197L319.614 233.705L319.356 234.794L325.801 243.572L335.739 244.905C337.029 245.055 338.325 244.694 339.379 243.889L362.972 223.707C365.724 221.637 368.807 217.914 366.761 215.129Z" fill="#FBAD62"/>
</g>
<path d="M365.504 212.715L360.395 204.862C359.424 203.337 357.95 202.255 356.264 201.83C354.579 201.405 352.804 201.668 351.292 202.566L323.838 219.862C323.27 220.205 322.775 220.667 322.381 221.219C321.986 221.772 321.702 222.404 321.544 223.076L319.356 233.485L325.801 243.397L335.739 244.902C336.387 244.983 337.044 244.923 337.669 244.726C338.295 244.529 338.877 244.2 339.379 243.757L364.307 222.575C365.632 221.39 366.49 219.719 366.712 217.893C366.934 216.067 366.502 214.219 365.504 212.715V212.715Z" stroke="#39294E" stroke-width="4.20576" stroke-linecap="round" stroke-linejoin="round"/>
<path d="M174.727 333.364C176.416 340.921 180.712 347.529 186.766 351.881C187.779 349.828 188.244 347.52 188.111 345.206C187.979 342.893 187.253 340.662 186.013 338.755C184.773 336.848 183.066 335.337 181.077 334.387C179.088 333.437 176.892 333.083 174.727 333.364V333.364Z" fill="#B55957"/>
<path d="M174.727 333.364C176.416 340.921 180.712 347.529 186.766 351.881C187.779 349.828 188.244 347.52 188.111 345.206C187.979 342.893 187.253 340.662 186.013 338.755C184.773 336.848 183.066 335.337 181.077 334.387C179.088 333.437 176.892 333.083 174.727 333.364V333.364Z" stroke="#39294E" stroke-width="2.80384" stroke-linecap="round" stroke-linejoin="round"/>
<path d="M240.829 299.353C242.569 298.693 243.644 296.075 242.931 293.758C242.256 291.563 239.491 291.915 239.491 291.915C239.491 291.915 242.226 286.937 238.252 285.117C235.212 283.725 222.9 294.962 220.705 290.962C222.262 287.578 222.825 283.775 222.321 280.046C218.304 275.776 211.512 286.7 211.512 295.26C203.767 295.202 197.103 292.436 194.541 286.829L186.918 304.319C193.299 308.328 200.012 310.562 210.926 309.081C213.365 313.915 222.992 313.007 229.074 311.358C236.43 309.366 240.3 307.414 242.335 304.785C244.508 301.978 243.062 299.353 240.829 299.353Z" fill="#FFAB91"/>
<path d="M243.148 295.509C242.838 295.853 242.46 296.118 242.04 296.286C242.371 296.286 242.699 296.35 243.009 296.473C243.084 296.157 243.131 295.834 243.148 295.509Z" fill="#E88B74"/>
<path d="M230.286 308.293C224.204 309.941 214.577 310.85 212.138 306.016C201.281 307.49 194.581 305.285 188.229 301.314L186.919 304.321C193.3 308.33 200.013 310.564 210.927 309.083C213.365 313.918 222.993 313.01 229.075 311.361C236.43 309.368 240.301 307.416 242.335 304.788C243.017 303.998 243.397 302.966 243.401 301.895C241.331 304.434 237.476 306.343 230.286 308.293Z" fill="#E88B74"/>
<path d="M213.836 285.635C212.861 287.696 212.168 289.895 211.78 292.164C212.093 292.176 212.405 292.189 212.722 292.192C212.757 289.957 213.133 287.742 213.836 285.635V285.635Z" fill="#E88B74"/>
<path d="M240.829 299.353C242.569 298.693 243.644 296.075 242.931 293.758C242.256 291.563 239.491 291.915 239.491 291.915C239.491 291.915 242.226 286.937 238.252 285.117C235.212 283.725 222.9 294.962 220.705 290.962C222.262 287.578 222.825 283.775 222.321 280.046C218.304 275.776 211.512 286.7 211.512 295.26C203.767 295.202 197.103 292.436 194.541 286.829L186.918 304.319C193.299 308.328 200.012 310.562 210.926 309.081C213.365 313.915 222.992 313.007 229.074 311.358C236.43 309.366 240.3 307.414 242.335 304.785C244.508 301.978 243.062 299.353 240.829 299.353Z" stroke="#39294E" stroke-width="2.80384" stroke-linejoin="round"/>
<path d="M229.916 296.506C234.702 295.484 239.488 291.915 239.488 291.915Z" fill="#FFAB91"/>
<path d="M229.916 296.506C234.702 295.484 239.488 291.915 239.488 291.915" stroke="#39294E" stroke-width="2.80384" stroke-linecap="round" stroke-linejoin="round"/>
<path d="M231.204 302.922C235.546 302.48 240.829 299.353 240.829 299.353Z" fill="#FFAB91"/>
<path d="M231.204 302.922C235.546 302.48 240.829 299.353 240.829 299.353" stroke="#39294E" stroke-width="2.80384" stroke-linecap="round" stroke-linejoin="round"/>
<path d="M199.133 289.528C198.059 288.498 197.158 288.278 195.542 285.993C183.596 269.114 204.651 249.866 211.895 250.493C217.103 231.083 205.979 223.214 205.979 223.214C181.825 235.664 167.568 257.914 172.923 286.826C175.19 299.068 181.494 307.253 191.915 310.558C192.52 304.388 196.882 295.83 199.133 289.528Z" fill="white"/>
<path d="M174.801 279.846C173.332 272.353 173.304 264.622 174.718 257.117C171.677 265.96 170.903 275.918 172.923 286.826C175.19 299.068 181.494 307.253 191.915 310.558C192.226 308.149 192.805 305.788 193.641 303.524C183.313 300.186 177.058 292.027 174.801 279.846Z" fill="#EFEFEF"/>
<path d="M193.911 266.365C198.012 257.067 207.496 250.112 211.895 250.493C212.518 248.212 212.939 245.875 213.153 243.512C207.384 243.823 195.025 254.265 193.911 266.365Z" fill="#EFEFEF"/>
<path d="M193.898 302.778C195.52 298.234 197.733 293.445 199.133 289.528C198.906 289.311 198.687 289.132 198.468 288.959C196.532 293.648 194.488 298.668 193.898 302.778Z" fill="#EFEFEF"/>
<path d="M199.133 289.528C198.059 288.498 197.158 288.278 195.542 285.993C183.596 269.114 204.651 249.866 211.895 250.493C217.103 231.083 205.979 223.214 205.979 223.214C181.825 235.664 167.568 257.914 172.923 286.826C175.19 299.068 181.494 307.253 191.915 310.558C192.52 304.388 196.882 295.83 199.133 289.528Z" stroke="#39294E" stroke-width="2.80384" stroke-linejoin="round"/>
<path d="M302.952 253.057C305.582 259.679 306.769 260.547 304.119 263.364C303.025 264.526 306.486 266.28 308.858 264.929C311.23 263.579 312.507 262.237 312.507 259.704C312.507 258.735 311.91 251.227 309.855 249.314C306.987 246.641 300.941 247.988 302.952 253.057Z" fill="#FFAB91"/>
<path d="M311.859 254.392C311.346 254.988 311.541 255.996 309.962 257.676C308.671 259.049 306.371 259.318 305.391 259.154C305.875 260.834 305.59 261.8 304.117 263.364C303.024 264.526 306.484 266.28 308.857 264.929C309.798 264.438 310.652 263.777 311.381 262.976C311.512 260.642 311.764 258.317 312.137 256.013C312.06 255.487 311.968 254.946 311.859 254.392Z" fill="#E88B74"/>
<path d="M312.083 251.543C312.083 259.716 312.372 262.249 314.058 261.884C315.743 261.519 317.285 261.019 317.889 260.05C318.493 259.081 319.553 257.393 319.354 252.909C319.309 250.353 318.988 247.81 318.395 245.332C317.882 242.648 312.083 242.951 312.083 251.543Z" fill="#FFAB91"/>
<path d="M312.145 256.336C312.293 260.722 312.763 262.164 314.06 261.884C315.748 261.52 317.287 261.019 317.891 260.05C318.494 259.081 319.555 257.393 319.356 252.909C319.345 252.679 319.335 252.466 319.324 252.257C315.762 258.371 312.654 256.542 312.145 256.336Z" fill="#E88B74"/>
<path d="M323.667 240.83C321.449 240.821 319.823 243.018 320.036 248.852C320.339 257.23 320.991 257.772 322.908 257.665C325.99 257.494 327.194 247.97 326.945 246.066C326.194 240.358 325.342 240.837 323.667 240.83Z" fill="#FFAB91"/>
<path d="M326.445 251.29C324.364 252.305 321.706 253.546 320.186 251.93C320.546 257.356 321.26 257.758 322.906 257.666C324.683 257.566 325.836 254.355 326.445 251.29Z" fill="#E88B74"/>
<path d="M302.952 253.057C305.582 259.679 306.769 260.547 304.119 263.364C303.025 264.526 306.486 266.28 308.858 264.929C311.23 263.579 312.507 262.237 312.507 259.704C312.507 258.735 311.91 251.227 309.855 249.314C306.987 246.641 300.941 247.988 302.952 253.057Z" stroke="#39294E" stroke-width="2.80384" stroke-linejoin="round"/>
<path d="M312.083 251.543C312.083 259.716 312.372 262.249 314.058 261.884C315.743 261.519 317.285 261.019 317.889 260.05C318.493 259.081 319.553 257.393 319.354 252.909C319.309 250.353 318.988 247.81 318.395 245.332C317.882 242.648 312.083 242.951 312.083 251.543Z" stroke="#39294E" stroke-width="2.80384" stroke-linejoin="round"/>
<path d="M323.667 240.83C321.449 240.821 319.823 243.018 320.036 248.852C320.339 257.23 320.991 257.772 322.908 257.665C325.99 257.494 327.194 247.97 326.945 246.066C326.194 240.358 325.342 240.837 323.667 240.83Z" stroke="#39294E" stroke-width="2.80384" stroke-linejoin="round"/>
<path d="M307.061 231.22C306.568 234.334 302.91 240.021 303.441 242.804C306.393 240.823 310.894 239.029 313.602 234.206C314.753 232.156 314.603 227.744 312.787 226.34C310.439 224.527 307.497 228.471 307.061 231.22Z" fill="#FFAB91" stroke="#39294E" stroke-width="2.80384" stroke-linejoin="round"/>
<path opacity="0.6" d="M206.874 62.4257C204.336 64.3369 201.172 67.8227 200.473 72.4534" stroke="white" stroke-width="2.80384" stroke-linecap="round" stroke-linejoin="round"/>
<path opacity="0.6" d="M211.012 60.2831C210.461 60.49 209.923 60.7312 209.4 61.0054" stroke="white" stroke-width="2.80384" stroke-linecap="round" stroke-linejoin="round"/>
<path d="M239.189 173.448C240.513 172.786 241.912 172.308 243.351 172.026C244.784 171.725 246.24 171.57 247.701 171.562C248.431 171.551 249.166 171.609 249.891 171.652C250.618 171.764 251.348 171.81 252.062 171.997C253.499 172.285 254.895 172.771 256.213 173.444C256.283 173.478 256.339 173.538 256.372 173.613C256.404 173.688 256.41 173.772 256.389 173.851C256.369 173.931 256.322 173.999 256.258 174.045C256.193 174.091 256.116 174.111 256.039 174.102H256.021C254.603 173.938 253.237 173.704 251.851 173.615C250.472 173.5 249.093 173.435 247.71 173.462C244.927 173.492 242.148 173.705 239.39 174.102H239.371C239.294 174.112 239.216 174.092 239.151 174.047C239.087 174.002 239.039 173.934 239.017 173.855C238.995 173.776 239 173.692 239.031 173.616C239.062 173.541 239.118 173.48 239.187 173.444L239.189 173.448Z" fill="#E88B74"/>
<path d="M267.091 151.511C267.599 151.655 268.078 151.895 268.505 152.221C268.938 152.536 269.327 152.913 269.663 153.341C270.003 153.768 270.284 154.245 270.496 154.756C270.714 155.262 270.847 155.803 270.891 156.357C270.895 156.396 270.885 156.435 270.865 156.468C270.845 156.5 270.815 156.525 270.78 156.538C270.745 156.55 270.707 156.55 270.673 156.537C270.638 156.524 270.608 156.499 270.588 156.466L270.582 156.456C270.314 156.005 270.092 155.56 269.821 155.146C269.565 154.729 269.284 154.33 268.98 153.951C268.364 153.182 267.686 152.47 266.955 151.824L266.943 151.813C266.916 151.788 266.897 151.753 266.89 151.714C266.883 151.676 266.888 151.636 266.905 151.601C266.922 151.566 266.95 151.538 266.983 151.522C267.017 151.505 267.055 151.502 267.091 151.511V151.511Z" fill="#39294E"/>
<path d="M223.218 156.678C223.353 156.138 223.58 155.629 223.886 155.175C224.183 154.715 224.537 154.301 224.94 153.944C225.342 153.583 225.79 153.285 226.271 153.059C226.747 152.828 227.256 152.686 227.777 152.639C227.814 152.635 227.851 152.645 227.882 152.667C227.912 152.688 227.936 152.72 227.948 152.757C227.959 152.794 227.959 152.834 227.947 152.871C227.935 152.908 227.912 152.94 227.88 152.961L227.871 152.968C227.446 153.253 227.028 153.488 226.638 153.776C226.246 154.049 225.871 154.347 225.514 154.67C224.79 155.325 224.12 156.045 223.513 156.823L223.502 156.835C223.478 156.864 223.445 156.885 223.409 156.892C223.372 156.899 223.335 156.894 223.302 156.875C223.269 156.857 223.243 156.828 223.227 156.792C223.212 156.756 223.209 156.716 223.218 156.678V156.678Z" fill="#39294E"/>
</svg>
